<?xml version='1.0' encoding='UTF-8' standalone='no'?>
<svg enable-background="new 0 0 100 100" xmlns="http://www.w3.org/2000/svg" viewBox="0 0 100 100" xml:space="preserve" x="0px" xmlns:cc="http://creativecommons.org/ns#" xmlns:rdf="http://www.w3.org/1999/02/22-rdf-syntax-ns#" y="0px" xmlns:inkscape="http://www.inkscape.org/namespaces/inkscape" height="100px" xmlns:dc="http://purl.org/dc/elements/1.1/" width="100px" id="Layer_1" sodipodi:docname="btn_custom_url.svg" xmlns:sodipodi="http://sodipodi.sourceforge.net/DTD/sodipodi-0.dtd" version="1.1" inkscape:version="0.92.1 r15371" xmlns:svg="http://www.w3.org/2000/svg">
 <metadata id="metadata15">
  <rdf:RDF>
   <cc:Work rdf:about="">
    <dc:format>image/svg+xml</dc:format>
    <dc:type rdf:resource="http://purl.org/dc/dcmitype/StillImage"/>
    <dc:title/>
   </cc:Work>
  </rdf:RDF>
 </metadata>
 <defs id="defs13"/>
 <sodipodi:namedview inkscape:pageopacity="0" inkscape:window-x="3829" gridtolerance="10" inkscape:zoom="18.43" inkscape:window-height="2066" inkscape:cy="50" pagecolor="#90908e" guidetolerance="10" inkscape:window-width="3840" inkscape:window-maximized="1" id="namedview11" inkscape:cx="40.938687" bordercolor="#666666" borderopacity="1" objecttolerance="10" inkscape:current-layer="Layer_1" showgrid="true" inkscape:pageshadow="2" inkscape:window-y="-11">
  <inkscape:grid type="xygrid" id="grid4492"/>
 </sodipodi:namedview>
 <circle r="38" style="opacity:1;fill:#000000;fill-opacity:0.20392157;stroke:none;stroke-width:0.99999994;stroke-linecap:round;stroke-linejoin:miter;stroke-miterlimit:4;stroke-dasharray:none;stroke-opacity:0.50196078;paint-order:normal" id="path4499" cx="50" cy="50"/>
 <path style="color:#000000;font-style:normal;font-variant:normal;font-weight:normal;font-stretch:normal;font-size:medium;line-height:normal;font-family:sans-serif;font-variant-ligatures:normal;font-variant-position:normal;font-variant-caps:normal;font-variant-numeric:normal;font-variant-alternates:normal;font-feature-settings:normal;text-indent:0;text-align:start;text-decoration:none;text-decoration-line:none;text-decoration-style:solid;text-decoration-color:#000000;letter-spacing:normal;word-spacing:normal;text-transform:none;writing-mode:lr-tb;direction:ltr;text-orientation:mixed;dominant-baseline:auto;baseline-shift:baseline;text-anchor:start;white-space:normal;shape-padding:0;clip-rule:nonzero;display:inline;overflow:visible;visibility:visible;opacity:1;isolation:auto;mix-blend-mode:normal;color-interpolation:sRGB;color-interpolation-filters:linearRGB;solid-color:#000000;solid-opacity:1;vector-effect:none;fill:#ffffff;fill-opacity:1;fill-rule:nonzero;stroke:#ffffff;stroke-width:1;stroke-linecap:round;stroke-linejoin:miter;stroke-miterlimit:4;stroke-dasharray:none;stroke-dashoffset:0;stroke-opacity:0.50196078;paint-order:normal;color-rendering:auto;image-rendering:auto;shape-rendering:auto;text-rendering:auto;enable-background:accumulate" id="path4494" inkscape:connector-curvature="0" d="M 50,10.5 C 28.196748,10.5 10.5,28.196749 10.5,50 10.5,71.803252 28.196748,89.5 50,89.5 71.803252,89.5 89.5,71.803252 89.5,50 89.5,28.196749 71.803252,10.5 50,10.5 Z m 0,2.025642 c 20.708512,0 37.474358,16.765846 37.474358,37.474358 0,20.708513 -16.765846,37.474359 -37.474359,37.474359 C 29.291487,87.474359 12.525641,70.708513 12.525641,50 12.525641,29.291488 29.291487,12.525642 50,12.525642 Z"/>
 <g id="g4508" transform="translate(479.906,-352.799)"/>
 <g id="g4510" transform="translate(479.906,-352.799)"/>
 <g id="g4512" transform="translate(479.906,-352.799)"/>
 <g id="g4514" transform="translate(479.906,-352.799)"/>
 <g id="g4516" transform="translate(479.906,-352.799)"/>
 <g id="g4518" transform="translate(479.906,-352.799)"/>
 <g id="g4520" transform="translate(479.906,-352.799)"/>
 <g id="g4522" transform="translate(479.906,-352.799)"/>
 <g id="g4524" transform="translate(479.906,-352.799)"/>
 <g id="g4526" transform="translate(479.906,-352.799)"/>
 <g id="g4528" transform="translate(479.906,-352.799)"/>
 <g id="g4530" transform="translate(479.906,-352.799)"/>
 <g id="g4532" transform="translate(479.906,-352.799)"/>
 <g id="g4534" transform="translate(479.906,-352.799)"/>
 <g id="g4536" transform="translate(479.906,-352.799)"/>
 <text x="-29" y="93" style="font-style:normal;font-weight:normal;font-size:40px;line-height:1.25;font-family:sans-serif;letter-spacing:0px;word-spacing:0px;fill:#000000;fill-opacity:1;stroke:none" id="text4568" xml:space="preserve">
  <tspan x="-29" sodipodi:role="line" y="129.49321" id="tspan4566"/>
 </text>
 <g style="fill:#ffffff;stroke-width:8.10667992;stroke:#ffffff;stroke-opacity:0.50196081" id="g4647" transform="matrix(0.12335506,0,0,0.12335506,19.736933,19.73681)">
  <g style="fill:#ffffff;stroke-width:8.10667992;stroke:#ffffff;stroke-opacity:0.50196081" id="g4509">
   <g style="fill:#ffffff;stroke-width:8.10667992;stroke:#ffffff;stroke-opacity:0.50196081" id="g4507">
    <path style="fill:#ffffff;stroke-width:8.10667992;stroke:#ffffff;stroke-opacity:0.50196081" id="path4505" inkscape:connector-curvature="0" d="m 437.333,149.333 h -384 C 23.915,149.333 0,173.269 0,202.667 V 288 c 0,29.397 23.915,53.333 53.333,53.333 h 384 c 29.419,0 53.333,-23.936 53.333,-53.333 v -85.333 c 10e-4,-29.398 -23.914,-53.334 -53.333,-53.334 z m 32,138.667 c 0,17.643 -14.357,32 -32,32 h -384 c -17.643,0 -32,-14.357 -32,-32 v -85.333 c 0,-17.643 14.357,-32 32,-32 h 384 c 17.643,0 32,14.357 32,32 z"/>
   </g>
  </g>
  <g style="fill:#ffffff;stroke-width:8.10667992;stroke:#ffffff;stroke-opacity:0.50196081" id="g4515">
   <g style="fill:#ffffff;stroke-width:8.10667992;stroke:#ffffff;stroke-opacity:0.50196081" id="g4513">
    <path style="fill:#ffffff;stroke-width:8.10667992;stroke:#ffffff;stroke-opacity:0.50196081" id="path4511" inkscape:connector-curvature="0" d="m 245.333,42.667 c -5.888,0 -10.667,4.779 -10.667,10.667 V 160 c 0,5.888 4.779,10.667 10.667,10.667 5.888,0 10.667,-4.779 10.667,-10.667 V 53.333 c 0,-5.888 -4.779,-10.666 -10.667,-10.666 z"/>
   </g>
  </g>
  <g style="fill:#ffffff;stroke-width:8.10667992;stroke:#ffffff;stroke-opacity:0.50196081" id="g4521">
   <g style="fill:#ffffff;stroke-width:8.10667992;stroke:#ffffff;stroke-opacity:0.50196081" id="g4519">
    <path style="fill:#ffffff;stroke-width:8.10667992;stroke:#ffffff;stroke-opacity:0.50196081" id="path4517" inkscape:connector-curvature="0" d="m 245.333,320 c -5.888,0 -10.667,4.779 -10.667,10.667 v 106.667 c 0,5.888 4.779,10.667 10.667,10.667 5.888,0 10.667,-4.78 10.667,-10.668 V 330.667 C 256,324.779 251.221,320 245.333,320 Z"/>
   </g>
  </g>
  <g style="fill:#ffffff;stroke-width:8.10667992;stroke:#ffffff;stroke-opacity:0.50196081" id="g4527">
   <g style="fill:#ffffff;stroke-width:8.10667992;stroke:#ffffff;stroke-opacity:0.50196081" id="g4525">
    <path style="fill:#ffffff;stroke-width:8.10667992;stroke:#ffffff;stroke-opacity:0.50196081" id="path4523" inkscape:connector-curvature="0" d="M 351.061,157.163 C 331.52,86.528 291.029,42.667 245.333,42.667 c -45.696,0 -86.187,43.861 -105.728,114.496 -1.579,5.675 1.749,11.541 7.424,13.12 5.739,1.557 11.584,-1.771 13.12,-7.445 C 176.768,102.805 210.219,64 245.333,64 c 35.114,0 68.565,38.805 85.205,98.837 1.28,4.736 5.568,7.829 10.261,7.829 0.939,0 1.877,-0.128 2.837,-0.384 5.676,-1.557 9.004,-7.445 7.425,-13.119 z"/>
   </g>
  </g>
  <g style="fill:#ffffff;stroke-width:8.10667992;stroke:#ffffff;stroke-opacity:0.50196081" id="g4533">
   <g style="fill:#ffffff;stroke-width:8.10667992;stroke:#ffffff;stroke-opacity:0.50196081" id="g4531">
    <path style="fill:#ffffff;stroke-width:8.10667992;stroke:#ffffff;stroke-opacity:0.50196081" id="path4529" inkscape:connector-curvature="0" d="m 343.637,320.384 c -5.739,-1.536 -11.584,1.771 -13.12,7.445 -16.619,60.032 -50.069,98.837 -85.184,98.837 -35.115,0 -68.565,-38.805 -85.184,-98.837 -1.536,-5.675 -7.339,-8.981 -13.12,-7.445 -5.675,1.557 -9.003,7.445 -7.424,13.12 C 159.147,404.139 199.637,448 245.333,448 c 45.696,0 86.187,-43.861 105.728,-114.496 1.579,-5.675 -1.749,-11.541 -7.424,-13.12 z"/>
   </g>
  </g>
  <g style="fill:#ffffff;stroke-width:8.10667992;stroke:#ffffff;stroke-opacity:0.50196081" id="g4539">
   <g style="fill:#ffffff;stroke-width:8.10667992;stroke:#ffffff;stroke-opacity:0.50196081" id="g4537">
    <path style="fill:#ffffff;stroke-width:8.10667992;stroke:#ffffff;stroke-opacity:0.50196081" id="path4535" inkscape:connector-curvature="0" d="M 426.688,155.243 C 392.128,85.803 322.645,42.667 245.333,42.667 c -77.312,0 -146.794,43.136 -181.354,112.597 -2.624,5.269 -0.469,11.669 4.8,14.293 5.227,2.624 11.669,0.469 14.293,-4.8 C 114.005,102.613 176.171,64 245.333,64 c 69.162,0 131.328,38.613 162.283,100.757 1.856,3.733 5.611,5.909 9.536,5.909 1.6,0 3.221,-0.363 4.736,-1.131 5.269,-2.623 7.424,-9.023 4.8,-14.292 z"/>
   </g>
  </g>
  <g style="fill:#ffffff;stroke-width:8.10667992;stroke:#ffffff;stroke-opacity:0.50196081" id="g4545">
   <g style="fill:#ffffff;stroke-width:8.10667992;stroke:#ffffff;stroke-opacity:0.50196081" id="g4543">
    <path style="fill:#ffffff;stroke-width:8.10667992;stroke:#ffffff;stroke-opacity:0.50196081" id="path4541" inkscape:connector-curvature="0" d="m 421.888,321.109 c -5.248,-2.603 -11.669,-0.491 -14.293,4.8 -30.933,62.144 -93.099,100.757 -162.261,100.757 -69.162,0 -131.329,-38.613 -162.262,-100.735 -2.624,-5.291 -9.067,-7.403 -14.293,-4.8 -5.269,2.624 -7.424,9.024 -4.8,14.293 C 98.539,404.864 168.021,448 245.333,448 c 77.312,0 146.795,-43.136 181.355,-112.597 2.624,-5.27 0.469,-11.67 -4.8,-14.294 z"/>
   </g>
  </g>
  <g style="fill:#ffffff;stroke-width:8.10667992;stroke:#ffffff;stroke-opacity:0.50196081" id="g4551">
   <g style="fill:#ffffff;stroke-width:8.10667992;stroke:#ffffff;stroke-opacity:0.50196081" id="g4549">
    <path style="fill:#ffffff;stroke-width:8.10667992;stroke:#ffffff;stroke-opacity:0.50196081" id="path4547" inkscape:connector-curvature="0" d="m 290.56,192.32 c -5.803,-1.429 -11.52,2.027 -12.928,7.765 l -12.437,49.792 -9.749,-29.248 c -2.901,-8.704 -17.323,-8.704 -20.245,0 l -9.749,29.248 -12.437,-49.792 c -1.408,-5.739 -7.296,-9.216 -12.928,-7.765 -5.739,1.429 -9.195,7.232 -7.765,12.928 l 21.333,85.333 c 1.152,4.587 5.205,7.893 9.941,8.064 5.568,0.235 9.045,-2.795 10.539,-7.275 l 11.2,-33.643 11.2,33.643 c 1.472,4.373 5.547,7.296 10.133,7.296 0.128,0 0.277,0 0.384,-0.021 4.736,-0.171 8.789,-3.456 9.941,-8.064 l 21.333,-85.333 c 1.429,-5.717 -2.027,-11.499 -7.766,-12.928 z"/>
   </g>
  </g>
  <g style="fill:#ffffff;stroke-width:8.10667992;stroke:#ffffff;stroke-opacity:0.50196081" id="g4557">
   <g style="fill:#ffffff;stroke-width:8.10667992;stroke:#ffffff;stroke-opacity:0.50196081" id="g4555">
    <path style="fill:#ffffff;stroke-width:8.10667992;stroke:#ffffff;stroke-opacity:0.50196081" id="path4553" inkscape:connector-curvature="0" d="m 162.581,192.32 c -5.803,-1.429 -11.499,2.027 -12.949,7.765 l -12.437,49.792 -9.749,-29.248 c -2.901,-8.704 -17.323,-8.704 -20.245,0 l -9.749,29.248 -12.437,-49.792 c -1.429,-5.739 -7.296,-9.216 -12.928,-7.765 -5.739,1.429 -9.195,7.232 -7.765,12.928 l 21.333,85.333 c 1.152,4.587 5.205,7.893 9.941,8.064 5.653,0.235 9.045,-2.795 10.539,-7.275 l 11.2,-33.643 11.2,33.643 c 1.472,4.373 5.547,7.296 10.133,7.296 0.128,0 0.277,0 0.405,-0.021 4.736,-0.171 8.789,-3.456 9.941,-8.064 l 21.333,-85.333 c 1.429,-5.717 -2.027,-11.499 -7.766,-12.928 z"/>
   </g>
  </g>
  <g style="fill:#ffffff;stroke-width:8.10667992;stroke:#ffffff;stroke-opacity:0.50196081" id="g4563">
   <g style="fill:#ffffff;stroke-width:8.10667992;stroke:#ffffff;stroke-opacity:0.50196081" id="g4561">
    <path style="fill:#ffffff;stroke-width:8.10667992;stroke:#ffffff;stroke-opacity:0.50196081" id="path4559" inkscape:connector-curvature="0" d="m 418.56,192.32 c -5.824,-1.429 -11.52,2.027 -12.928,7.765 l -12.437,49.792 -9.749,-29.248 c -2.901,-8.704 -17.323,-8.704 -20.245,0 l -9.749,29.248 -12.437,-49.792 c -1.408,-5.739 -7.296,-9.216 -12.928,-7.765 -5.717,1.429 -9.173,7.211 -7.765,12.928 l 21.333,85.333 c 1.152,4.587 5.205,7.893 9.941,8.064 5.461,0.235 9.045,-2.795 10.539,-7.275 l 11.2,-33.643 11.2,33.643 c 1.472,4.373 5.547,7.296 10.133,7.296 0.128,0 0.277,0 0.384,-0.021 4.736,-0.171 8.789,-3.456 9.941,-8.064 l 21.333,-85.333 c 1.429,-5.717 -2.027,-11.499 -7.766,-12.928 z"/>
   </g>
  </g>
  <g style="fill:#ffffff;stroke-width:8.10667992;stroke:#ffffff;stroke-opacity:0.50196081" id="g4565"/>
  <g style="fill:#ffffff;stroke-width:8.10667992;stroke:#ffffff;stroke-opacity:0.50196081" id="g4567"/>
  <g style="fill:#ffffff;stroke-width:8.10667992;stroke:#ffffff;stroke-opacity:0.50196081" id="g4569"/>
  <g style="fill:#ffffff;stroke-width:8.10667992;stroke:#ffffff;stroke-opacity:0.50196081" id="g4571"/>
  <g style="fill:#ffffff;stroke-width:8.10667992;stroke:#ffffff;stroke-opacity:0.50196081" id="g4573"/>
  <g style="fill:#ffffff;stroke-width:8.10667992;stroke:#ffffff;stroke-opacity:0.50196081" id="g4575"/>
  <g style="fill:#ffffff;stroke-width:8.10667992;stroke:#ffffff;stroke-opacity:0.50196081" id="g4577"/>
  <g style="fill:#ffffff;stroke-width:8.10667992;stroke:#ffffff;stroke-opacity:0.50196081" id="g4579"/>
  <g style="fill:#ffffff;stroke-width:8.10667992;stroke:#ffffff;stroke-opacity:0.50196081" id="g4581"/>
  <g style="fill:#ffffff;stroke-width:8.10667992;stroke:#ffffff;stroke-opacity:0.50196081" id="g4583"/>
  <g style="fill:#ffffff;stroke-width:8.10667992;stroke:#ffffff;stroke-opacity:0.50196081" id="g4585"/>
  <g style="fill:#ffffff;stroke-width:8.10667992;stroke:#ffffff;stroke-opacity:0.50196081" id="g4587"/>
  <g style="fill:#ffffff;stroke-width:8.10667992;stroke:#ffffff;stroke-opacity:0.50196081" id="g4589"/>
  <g style="fill:#ffffff;stroke-width:8.10667992;stroke:#ffffff;stroke-opacity:0.50196081" id="g4591"/>
  <g style="fill:#ffffff;stroke-width:8.10667992;stroke:#ffffff;stroke-opacity:0.50196081" id="g4593"/>
 </g>
</svg>
