<?xml version="1.0" encoding="utf-8"?>
<!-- Generator: Adobe Illustrator 16.0.3, SVG Export Plug-In . SVG Version: 6.00 Build 0)  -->
<!DOCTYPE svg [
	<!ENTITY ns_flows "http://ns.adobe.com/Flows/1.0/">
	<!ENTITY ns_extend "http://ns.adobe.com/Extensibility/1.0/">
	<!ENTITY ns_ai "http://ns.adobe.com/AdobeIllustrator/10.0/">
	<!ENTITY ns_graphs "http://ns.adobe.com/Graphs/1.0/">
]>
<svg version="1.2" baseProfile="tiny" id="Layer_1" xmlns:x="&ns_extend;" xmlns:i="&ns_ai;" xmlns:graph="&ns_graphs;"
	 xmlns="http://www.w3.org/2000/svg" xmlns:xlink="http://www.w3.org/1999/xlink" xmlns:a="http://ns.adobe.com/AdobeSVGViewerExtensions/3.0/"
	 x="0px" y="0px" width="145px" height="100px" viewBox="0 0 145 100" xml:space="preserve">
<g>
	<g display="none">
		
			<text transform="matrix(1 0 0 1 282.3867 58.1841)" display="inline" fill="#70706F" font-family="'Metropolis-Black'" font-size="14">I</text>
		
			<text transform="matrix(1 0 0 1 287.0811 58.1841)" display="inline" fill="#70706F" font-family="'Metropolis-Black'" font-size="14">N</text>
		
			<text transform="matrix(1 0 0 1 298.166 58.1841)" display="inline" fill="#70706F" font-family="'Metropolis-Black'" font-size="14">I</text>
		
			<text transform="matrix(1 0 0 1 302.7266 58.1841)" display="inline" fill="#70706F" font-family="'Metropolis-Black'" font-size="14">C</text>
		
			<text transform="matrix(1 0 0 1 312.6309 58.1841)" display="inline" fill="#70706F" font-family="'Metropolis-Black'" font-size="14">I</text>
		
			<text transform="matrix(1 0 0 1 317.1904 58.1841)" display="inline" fill="#70706F" font-family="'Metropolis-Black'" font-size="14">O</text>
		
			<text transform="matrix(1 0 0 1 328.6006 58.1841)" display="inline" fill="#70706F" font-family="'Metropolis-Light'" font-size="14">	</text>
		
			<text transform="matrix(1 0 0 1 477.542 58.1841)" display="inline" fill="#70706F" font-family="'Metropolis-Light'" font-size="14">N</text>
		
			<text transform="matrix(1 0 0 1 488.1348 58.1841)" display="inline" fill="#70706F" font-family="'Metropolis-Light'" font-size="14">O</text>
		
			<text transform="matrix(1 0 0 1 499.2324 58.1841)" display="inline" fill="#70706F" font-family="'Metropolis-Light'" font-size="14">S</text>
		
			<text transform="matrix(1 0 0 1 507.5977 58.1841)" display="inline" fill="#70706F" font-family="'Metropolis-Light'" font-size="14">O</text>
		
			<text transform="matrix(1 0 0 1 518.0625 58.1841)" display="inline" fill="#70706F" font-family="'Metropolis-Light'" font-size="14">T</text>
		
			<text transform="matrix(1 0 0 1 526.7227 58.1841)" display="inline" fill="#70706F" font-family="'Metropolis-Light'" font-size="14">R</text>
		
			<text transform="matrix(1 0 0 1 535.7842 58.1841)" display="inline" fill="#70706F" font-family="'Metropolis-Light'" font-size="14">O</text>
		
			<text transform="matrix(1 0 0 1 546.8818 58.1841)" display="inline" fill="#70706F" font-family="'Metropolis-Light'" font-size="14">S</text>
		
			<text transform="matrix(1 0 0 1 555.4219 58.1841)" display="inline" fill="#70706F" font-family="'Metropolis-Light'" font-size="14">	</text>
		
			<text transform="matrix(1 0 0 1 672.6963 58.1841)" display="inline" fill="#70706F" font-family="'Metropolis-Light'" font-size="14">D</text>
		
			<text transform="matrix(1 0 0 1 683.332 58.1841)" display="inline" fill="#70706F" font-family="'Metropolis-Light'" font-size="14">I</text>
		
			<text transform="matrix(1 0 0 1 686.3506 58.1841)" display="inline" fill="#70706F" font-family="'Metropolis-Light'" font-size="14">V</text>
		
			<text transform="matrix(1 0 0 1 696.6484 58.1841)" display="inline" fill="#70706F" font-family="'Metropolis-Light'" font-size="14">I</text>
		
			<text transform="matrix(1 0 0 1 699.791 58.1841)" display="inline" fill="#70706F" font-family="'Metropolis-Light'" font-size="14">S</text>
		
			<text transform="matrix(1 0 0 1 708.4453 58.1841)" display="inline" fill="#70706F" font-family="'Metropolis-Light'" font-size="14">I</text>
		
			<text transform="matrix(1 0 0 1 711.668 58.1841)" display="inline" fill="#70706F" font-family="'Metropolis-Light'" font-size="14">O</text>
		
			<text transform="matrix(1 0 0 1 722.9805 58.1841)" display="inline" fill="#70706F" font-family="'Metropolis-Light'" font-size="14">N</text>
		
			<text transform="matrix(1 0 0 1 733.6924 58.1841)" display="inline" fill="#70706F" font-family="'Metropolis-Light'" font-size="14">E</text>
		
			<text transform="matrix(1 0 0 1 742.1426 58.1841)" display="inline" fill="#70706F" font-family="'Metropolis-Light'" font-size="14">S</text>
		
			<text transform="matrix(1 0 0 1 750.6816 58.1841)" display="inline" fill="#70706F" font-family="'Metropolis-Light'" font-size="14">	</text>
		
			<text transform="matrix(1 0 0 1 867.8516 58.1841)" display="inline" fill="#70706F" font-family="'Metropolis-Light'" font-size="14">C</text>
		
			<text transform="matrix(1 0 0 1 877.1318 58.1841)" display="inline" fill="#70706F" font-family="'Metropolis-Light'" font-size="14">O</text>
		
			<text transform="matrix(1 0 0 1 888.4453 58.1841)" display="inline" fill="#70706F" font-family="'Metropolis-Light'" font-size="14">N</text>
		
			<text transform="matrix(1 0 0 1 898.7646 58.1841)" display="inline" fill="#70706F" font-family="'Metropolis-Light'" font-size="14">T</text>
		
			<text transform="matrix(1 0 0 1 906.0693 58.1841)" display="inline" fill="#70706F" font-family="'Metropolis-Light'" font-size="14">รก</text>
		
			<text transform="matrix(1 0 0 1 915.8301 58.1841)" display="inline" fill="#70706F" font-family="'Metropolis-Light'" font-size="14">C</text>
		
			<text transform="matrix(1 0 0 1 925.4023 58.1841)" display="inline" fill="#70706F" font-family="'Metropolis-Light'" font-size="14">T</text>
		
			<text transform="matrix(1 0 0 1 934.0625 58.1841)" display="inline" fill="#70706F" font-family="'Metropolis-Light'" font-size="14">E</text>
		
			<text transform="matrix(1 0 0 1 942.459 58.1841)" display="inline" fill="#70706F" font-family="'Metropolis-Light'" font-size="14">N</text>
		
			<text transform="matrix(1 0 0 1 953.0518 58.1841)" display="inline" fill="#70706F" font-family="'Metropolis-Light'" font-size="14">O</text>
		
			<text transform="matrix(1 0 0 1 964.1494 58.1841)" display="inline" fill="#70706F" font-family="'Metropolis-Light'" font-size="14">S</text>
		
			<text transform="matrix(1 0 0 1 972.6895 58.1841)" display="inline" fill="#70706F" font-family="'Metropolis-Light'" font-size="14">	</text>
		
			<text transform="matrix(1 0 0 1 1063.0059 58.1841)" display="inline" fill="#70706F" font-family="'Metropolis-Light'" font-size="14">F</text>
		
			<text transform="matrix(1 0 0 1 1071.2256 58.1841)" display="inline" fill="#70706F" font-family="'Metropolis-Light'" font-size="14">O</text>
		
			<text transform="matrix(1 0 0 1 1082.6436 58.1841)" display="inline" fill="#70706F" font-family="'Metropolis-Light'" font-size="14">R</text>
		
			<text transform="matrix(1 0 0 1 1091.8008 58.1841)" display="inline" fill="#70706F" font-family="'Metropolis-Light'" font-size="14">M</text>
		
			<text transform="matrix(1 0 0 1 1103.3945 58.1841)" display="inline" fill="#70706F" font-family="'Metropolis-Light'" font-size="14">A</text>
		
			<text transform="matrix(1 0 0 1 1113.7539 58.1841)" display="inline" fill="#70706F" font-family="'Metropolis-Light'" font-size="14"> </text>
		
			<text transform="matrix(1 0 0 1 1117.8145 58.1841)" display="inline" fill="#70706F" font-family="'Metropolis-Light'" font-size="14">P</text>
		
			<text transform="matrix(1 0 0 1 1125.9326 58.1841)" display="inline" fill="#70706F" font-family="'Metropolis-Light'" font-size="14">A</text>
		
			<text transform="matrix(1 0 0 1 1136.2305 58.1841)" display="inline" fill="#70706F" font-family="'Metropolis-Light'" font-size="14">R</text>
		
			<text transform="matrix(1 0 0 1 1144.9893 58.1841)" display="inline" fill="#70706F" font-family="'Metropolis-Light'" font-size="14">T</text>
		
			<text transform="matrix(1 0 0 1 1153.6494 58.1841)" display="inline" fill="#70706F" font-family="'Metropolis-Light'" font-size="14">E</text>
		
			<text transform="matrix(1 0 0 1 1162.2314 58.1841)" display="inline" fill="#70706F" font-family="'Metropolis-Light'" font-size="14"> </text>
		
			<text transform="matrix(1 0 0 1 1166.291 58.1841)" display="inline" fill="#70706F" font-family="'Metropolis-Light'" font-size="14">D</text>
		
			<text transform="matrix(1 0 0 1 1176.9336 58.1841)" display="inline" fill="#70706F" font-family="'Metropolis-Light'" font-size="14">E</text>
		
			<text transform="matrix(1 0 0 1 1185.5156 58.1841)" display="inline" fill="#70706F" font-family="'Metropolis-Light'" font-size="14"> </text>
		
			<text transform="matrix(1 0 0 1 1189.5762 58.1841)" display="inline" fill="#70706F" font-family="'Metropolis-Light'" font-size="14">N</text>
		
			<text transform="matrix(1 0 0 1 1200.2051 58.1841)" display="inline" fill="#70706F" font-family="'Metropolis-Light'" font-size="14">U</text>
		
			<text transform="matrix(1 0 0 1 1210.6016 58.1841)" display="inline" fill="#70706F" font-family="'Metropolis-Light'" font-size="14">E</text>
		
			<text transform="matrix(1 0 0 1 1219.0527 58.1841)" display="inline" fill="#70706F" font-family="'Metropolis-Light'" font-size="14">S</text>
		
			<text transform="matrix(1 0 0 1 1227.3975 58.1841)" display="inline" fill="#70706F" font-family="'Metropolis-Light'" font-size="14">T</text>
		
			<text transform="matrix(1 0 0 1 1236.0576 58.1841)" display="inline" fill="#70706F" font-family="'Metropolis-Light'" font-size="14">R</text>
		
			<text transform="matrix(1 0 0 1 1245.1182 58.1841)" display="inline" fill="#70706F" font-family="'Metropolis-Light'" font-size="14">O</text>
		
			<text transform="matrix(1 0 0 1 1256.416 58.1841)" display="inline" fill="#70706F" font-family="'Metropolis-Light'" font-size="14"> </text>
		
			<text transform="matrix(1 0 0 1 1260.4766 58.1841)" display="inline" fill="#70706F" font-family="'Metropolis-Light'" font-size="14">E</text>
		
			<text transform="matrix(1 0 0 1 1268.7422 58.1841)" display="inline" fill="#70706F" font-family="'Metropolis-Light'" font-size="14">Q</text>
		
			<text transform="matrix(1 0 0 1 1280.1123 58.1841)" display="inline" fill="#70706F" font-family="'Metropolis-Light'" font-size="14">U</text>
		
			<text transform="matrix(1 0 0 1 1290.5195 58.1841)" display="inline" fill="#70706F" font-family="'Metropolis-Light'" font-size="14">I</text>
		
			<text transform="matrix(1 0 0 1 1293.8389 58.1841)" display="inline" fill="#70706F" font-family="'Metropolis-Light'" font-size="14">P</text>
		
			<text transform="matrix(1 0 0 1 1302.8652 58.1841)" display="inline" fill="#70706F" font-family="'Metropolis-Light'" font-size="14">O</text>
	</g>
	<line display="none" fill="none" stroke="#70706F" stroke-miterlimit="10" x1="281.782" y1="64.646" x2="328.703" y2="64.646"/>
	<g>
		<g>
			<g>
				<g>
					<path fill="#252C63" d="M139.445,80.943l-5.855-6.945c-0.072-0.086-0.182-0.136-0.293-0.136H13.652
						c-0.12,0-0.233,0.057-0.305,0.15l-5.324,6.969c-0.088,0.117-0.104,0.273-0.038,0.406c0.064,0.131,0.199,0.213,0.344,0.213
						h0.002l130.821-0.023c0.148,0,0.285-0.088,0.348-0.225C139.561,81.219,139.54,81.057,139.445,80.943"/>
					<path fill="#252C63" d="M37.912,42.868H51.21c0.121,0,0.234-0.055,0.306-0.15l17.941-23.491
						c0.102-0.134,0.105-0.317,0.009-0.455l-6.355-9.09c-0.07-0.101-0.184-0.162-0.307-0.165c-0.114,0.007-0.24,0.055-0.314,0.152
						L37.605,42.25c-0.088,0.117-0.104,0.272-0.04,0.404C37.631,42.786,37.765,42.868,37.912,42.868"/>
					<path fill="#3974B9" d="M54.552,42.653c0.066,0.132,0.198,0.215,0.347,0.215h15.503c0.121,0,0.235-0.057,0.307-0.153
						l16.887-22.473c0.108-0.143,0.103-0.34-0.013-0.479l-7.901-9.38c-0.076-0.089-0.219-0.145-0.303-0.137
						c-0.117,0.004-0.227,0.058-0.298,0.15L54.593,42.25C54.504,42.366,54.488,42.523,54.552,42.653"/>
					<path fill="#84CFF3" d="M74.251,42.657c0.065,0.13,0.198,0.211,0.344,0.211h31.552c0.148,0,0.285-0.086,0.35-0.223
						c0.062-0.136,0.04-0.295-0.057-0.41L89.732,22.484c-0.076-0.089-0.188-0.134-0.305-0.137c-0.117,0.005-0.226,0.061-0.296,0.154
						L74.289,42.252C74.199,42.37,74.186,42.525,74.251,42.657"/>
					<path fill="#70706F" d="M35.218,47.149c0.645,0,1.11,0.224,1.545,0.593c0.05,0.051,0.057,0.128,0.006,0.179
						c-0.057,0.058-0.126,0.122-0.179,0.179c-0.058,0.064-0.096,0.058-0.165-0.006c-0.326-0.287-0.786-0.499-1.214-0.499
						c-1.009,0-1.775,0.842-1.775,1.833c0,0.984,0.766,1.846,1.775,1.846c0.703,0,1.149-0.269,1.149-0.269v-0.894h-0.734
						c-0.07,0-0.121-0.051-0.121-0.115V49.76c0-0.07,0.051-0.121,0.121-0.121h1.105c0.063,0,0.114,0.057,0.114,0.121v1.462
						c0,0.033-0.026,0.083-0.051,0.103c0,0-0.651,0.422-1.577,0.422c-1.277,0-2.305-1.016-2.305-2.293
						C32.913,48.177,33.941,47.149,35.218,47.149"/>
					<path fill="#70706F" d="M52.077,47.334c0-0.063,0.051-0.121,0.121-0.121h1.654c0.767,0,1.393,0.6,1.393,1.36
						c0,0.587-0.39,1.079-0.946,1.303l0.876,1.621c0.044,0.084,0,0.186-0.109,0.186h-0.327c-0.057,0-0.09-0.032-0.102-0.057
						l-0.849-1.693h-1.22v1.629c0,0.064-0.057,0.121-0.12,0.121h-0.25c-0.07,0-0.121-0.057-0.121-0.121V47.334z M53.82,49.512
						c0.492,0,0.919-0.408,0.919-0.933c0-0.485-0.427-0.899-0.919-0.899h-1.238v1.833H53.82z"/>
					<path fill="#70706F" d="M70.405,47.334c0-0.063,0.058-0.121,0.122-0.121h0.243c0.07,0,0.12,0.058,0.12,0.121v2.663
						c0,0.727,0.454,1.296,1.202,1.296c0.753,0,1.213-0.557,1.213-1.284v-2.675c0-0.063,0.051-0.121,0.121-0.121h0.242
						c0.064,0,0.121,0.058,0.121,0.121v2.701c0,0.97-0.688,1.712-1.697,1.712c-1.003,0-1.687-0.742-1.687-1.712V47.334z"/>
					<path fill="#70706F" d="M89.199,47.334c0-0.063,0.051-0.121,0.121-0.121h1.412c0.785,0,1.43,0.638,1.43,1.411
						c0,0.792-0.645,1.437-1.423,1.437h-1.055v1.501c0,0.064-0.056,0.121-0.12,0.121H89.32c-0.07,0-0.121-0.057-0.121-0.121V47.334z
						 M90.701,49.587c0.521,0,0.971-0.428,0.971-0.978c0-0.517-0.449-0.912-0.971-0.912h-1.017v1.889H90.701z"/>
					<path fill="#70706F" d="M109.137,47.149c1.277,0,2.299,1.028,2.299,2.305c0,1.277-1.021,2.292-2.299,2.292
						s-2.292-1.015-2.292-2.292C106.845,48.177,107.859,47.149,109.137,47.149 M109.137,51.299c1.016,0,1.852-0.831,1.852-1.845
						c0-1.015-0.836-1.858-1.852-1.858s-1.846,0.844-1.846,1.858C107.291,50.468,108.121,51.299,109.137,51.299"/>
					<path fill="#70706F" d="M56.604,53.854l8.28,17.987H61.88l-2.689-5.87h-7.536l-2.776,5.87h-1.477l8.469-17.987H56.604z
						 M52.175,64.836h6.474l-3.192-6.955L52.175,64.836z"/>
					<path fill="#70706F" d="M69.353,63.106c0,1.238,0.185,2.344,0.555,3.32c0.37,0.977,0.879,1.803,1.527,2.48
						c0.646,0.678,1.416,1.194,2.303,1.552c0.889,0.357,1.85,0.537,2.886,0.537c0.613,0,1.206-0.12,1.778-0.359
						s1.105-0.552,1.598-0.934c0.492-0.383,0.932-0.817,1.318-1.301c0.387-0.484,0.707-0.974,0.959-1.469l1.236,0.794
						c-0.36,0.589-0.788,1.157-1.279,1.705c-0.492,0.546-1.063,1.028-1.711,1.445c-0.648,0.416-1.381,0.751-2.197,1.005
						c-0.814,0.252-1.729,0.377-2.738,0.377c-0.967,0-1.88-0.11-2.738-0.335c-0.859-0.222-1.647-0.534-2.368-0.933
						c-0.72-0.399-1.362-0.883-1.93-1.446c-0.568-0.563-1.048-1.185-1.44-1.862c-0.391-0.677-0.691-1.403-0.901-2.177
						c-0.21-0.775-0.315-1.574-0.315-2.399c0-0.824,0.107-1.625,0.321-2.403c0.213-0.779,0.522-1.511,0.921-2.197
						c0.399-0.685,0.891-1.314,1.471-1.887c0.581-0.572,1.234-1.062,1.963-1.47c0.727-0.409,1.524-0.726,2.392-0.953
						c0.866-0.229,1.791-0.341,2.777-0.341c0.934,0,1.793,0.126,2.58,0.378c0.787,0.253,1.506,0.587,2.158,1.004
						c0.653,0.416,1.23,0.898,1.736,1.444c0.506,0.547,0.938,1.115,1.299,1.705l-1.273,0.857c-0.74-1.421-1.565-2.464-2.475-3.13
						c-0.908-0.664-1.951-0.997-3.131-0.997c-1.018,0-1.968,0.186-2.852,0.555c-0.884,0.37-1.653,0.901-2.311,1.59
						c-0.656,0.69-1.173,1.527-1.553,2.512C69.542,60.759,69.353,61.87,69.353,63.106"/>
					<path fill="#70706F" d="M87.176,54.258h6.084c1.061,0,1.988,0.114,2.783,0.34c0.795,0.227,1.457,0.545,1.988,0.954
						c0.529,0.408,0.93,0.891,1.198,1.451c0.27,0.56,0.404,1.172,0.404,1.837c0,0.546-0.103,1.058-0.31,1.533
						c-0.206,0.476-0.5,0.905-0.877,1.288c-0.378,0.384-0.833,0.715-1.363,0.997c-0.531,0.283-1.114,0.499-1.754,0.649l6.399,8.534
						h-3.421l-6.109-8.268h-2.07v8.268h-2.953V54.258z M90.129,62.69h1.704c0.664,0,1.277-0.088,1.837-0.265
						c0.559-0.178,1.045-0.428,1.458-0.752c0.412-0.322,0.733-0.716,0.965-1.18c0.231-0.462,0.348-0.98,0.348-1.552
						c0-0.521-0.093-1.003-0.277-1.444c-0.187-0.443-0.442-0.821-0.771-1.137s-0.719-0.562-1.174-0.738
						c-0.453-0.176-0.95-0.266-1.49-0.266h-2.6V62.69z"/>
					<path fill="#70706F" d="M112.141,72.257c-0.908,0-1.777-0.11-2.611-0.335c-0.832-0.223-1.607-0.536-2.324-0.939
						c-0.715-0.404-1.365-0.891-1.954-1.457c-0.589-0.569-1.091-1.198-1.503-1.888s-0.732-1.43-0.959-2.221
						c-0.227-0.791-0.341-1.616-0.341-2.474c0-0.842,0.114-1.649,0.341-2.424c0.227-0.772,0.547-1.497,0.959-2.17
						c0.412-0.672,0.914-1.285,1.503-1.836c0.589-0.551,1.239-1.024,1.954-1.419c0.717-0.396,1.492-0.7,2.324-0.915
						c0.834-0.215,1.703-0.322,2.611-0.322c0.911,0,1.781,0.107,2.615,0.322c0.832,0.215,1.605,0.519,2.322,0.915
						c0.715,0.395,1.367,0.869,1.955,1.419c0.59,0.551,1.091,1.164,1.502,1.836c0.412,0.674,0.732,1.398,0.96,2.17
						c0.229,0.775,0.342,1.583,0.342,2.424c0,0.851-0.113,1.673-0.342,2.468c-0.228,0.795-0.548,1.537-0.96,2.227
						c-0.411,0.69-0.912,1.319-1.502,1.888c-0.588,0.566-1.24,1.053-1.955,1.457c-0.717,0.403-1.49,0.717-2.322,0.939
						C113.922,72.147,113.052,72.257,112.141,72.257 M112.141,71.375c1.003,0,1.89-0.21,2.664-0.632
						c0.773-0.421,1.425-1.005,1.951-1.754c0.525-0.749,0.925-1.639,1.199-2.67c0.273-1.031,0.41-2.156,0.41-3.376
						c0-1.203-0.137-2.308-0.41-3.313c-0.274-1.005-0.674-1.872-1.199-2.601c-0.526-0.727-1.178-1.293-1.951-1.697
						c-0.774-0.405-1.661-0.606-2.664-0.606c-1.025,0-1.928,0.202-2.707,0.606c-0.776,0.404-1.427,0.97-1.949,1.697
						c-0.521,0.729-0.916,1.595-1.179,2.601c-0.267,1.006-0.399,2.111-0.399,3.313c0,1.22,0.133,2.346,0.399,3.376
						c0.263,1.031,0.657,1.921,1.179,2.67c0.522,0.749,1.173,1.333,1.949,1.754C110.213,71.165,111.115,71.375,112.141,71.375"/>
					<polygon fill="#70706F" points="42.038,71.841 38.692,60.076 31.254,71.759 28.053,71.759 28.021,71.566 26.781,58.651 
						17.025,71.759 15.048,71.759 28.653,54.034 29.652,54.034 30.9,66.983 39.144,54.034 40.31,54.034 45.332,71.841 					"/>
				</g>
			</g>
		</g>
		<g>
			<g>
				<text transform="matrix(1 0 0 1 51.7119 92.5381)" fill="#70706F" font-family="'Metropolis-ExtraBold'" font-size="9.2402">3</text>
				<text transform="matrix(1 0 0 1 57.519 92.5381)" fill="#70706F" font-family="'Metropolis-ExtraBold'" font-size="9.2402">0</text>
				<text transform="matrix(1 0 0 1 64.0977 92.5381)" fill="#70706F" font-family="'Metropolis-ExtraBold'" font-size="9.2402"> </text>
				<text transform="matrix(1 0 0 1 66.6484 92.5381)" fill="#70706F" font-family="'Metropolis-ExtraBold'" font-size="9.2402">A</text>
				<text transform="matrix(1 0 0 1 73.6797 92.5381)" fill="#70706F" font-family="'Metropolis-ExtraBold'" font-size="9.2402">ร</text>
				<text transform="matrix(1 0 0 1 81.0093 92.5381)" fill="#70706F" font-family="'Metropolis-ExtraBold'" font-size="9.2402">O</text>
				<text transform="matrix(1 0 0 1 88.6064 92.5381)" fill="#70706F" font-family="'Metropolis-ExtraBold'" font-size="9.2402">S</text>
			</g>
		</g>
	</g>
	<g display="none">
		<circle display="inline" fill="#5FA9DD" cx="1495.478" cy="54.362" r="14.802"/>
		<g display="inline">
			<path fill="#F2F2F2" d="M1504.544,50.198c-0.635,0.281-1.317,0.472-2.033,0.557c0.731-0.438,1.292-1.13,1.557-1.957
				c-0.684,0.406-1.441,0.7-2.247,0.858c-0.646-0.688-1.564-1.117-2.583-1.117c-1.953,0-3.538,1.585-3.538,3.538
				c0,0.277,0.032,0.547,0.093,0.807c-2.94-0.147-5.548-1.556-7.293-3.697c-0.305,0.522-0.479,1.131-0.479,1.779
				c0,1.227,0.625,2.31,1.573,2.944c-0.58-0.018-1.126-0.177-1.603-0.443c0,0.015,0,0.03,0,0.045c0,1.714,1.22,3.144,2.838,3.469
				c-0.297,0.082-0.609,0.125-0.932,0.125c-0.229,0-0.45-0.022-0.666-0.063c0.45,1.405,1.757,2.428,3.305,2.457
				c-1.211,0.949-2.736,1.515-4.394,1.515c-0.285,0-0.567-0.017-0.844-0.05c1.564,1.004,3.425,1.59,5.423,1.59
				c6.508,0,10.066-5.391,10.066-10.066c0-0.153-0.004-0.306-0.01-0.458C1503.47,51.53,1504.069,50.908,1504.544,50.198
				L1504.544,50.198z"/>
		</g>
	</g>
	<g display="none">
		<circle display="inline" fill="#3C5A99" cx="1422.231" cy="54.362" r="14.802"/>
		<path display="inline" fill="#FFFFFF" d="M1425.952,54.942h-2.641v9.676h-4.002v-9.676h-1.902v-3.401h1.902V49.34
			c0-1.573,0.748-4.038,4.037-4.038l2.965,0.012v3.301h-2.15c-0.354,0-0.85,0.176-0.85,0.927v2.001h2.99L1425.952,54.942z"/>
	</g>
</g>
</svg>
