<svg width="24" height="24" viewBox="0 0 24 24" fill="none" xmlns="http://www.w3.org/2000/svg">
<path d="M22.8414 14.6639V13.8759C22.8414 11.3829 21.9743 8.94854 20.3999 7.02147C19.8359 6.33109 19.1903 5.71647 18.4828 5.18851V5.10348C18.4828 4.87492 18.2975 4.68967 18.069 4.68967C17.9895 4.68967 17.9157 4.7124 17.8527 4.75117C16.8612 4.11442 15.7686 3.63976 14.6207 3.3542V2.34484C14.6207 2.11628 14.4354 1.93103 14.2069 1.93103H9.79313C9.56461 1.93103 9.37931 2.11623 9.37931 2.34484V3.35411C8.23139 3.63972 7.13878 4.11433 6.14723 4.75112C6.08428 4.7124 6.01036 4.68967 5.931 4.68967C5.70248 4.68967 5.51719 4.87487 5.51719 5.10348V5.18851C4.8097 5.71647 4.16405 6.33109 3.6 7.02151C2.02561 8.94864 1.15856 11.3829 1.15856 13.8759V14.6639C0.494578 14.8255 0 15.4249 0 16.1379C0 16.9745 0.680625 17.6552 1.51725 17.6552H2.80116C2.98842 18.5781 3.79102 19.4935 5.06756 20.2185C6.43678 20.9959 8.15006 21.4486 9.93094 21.5095V21.6552C9.93094 21.8838 10.1162 22.069 10.3448 22.069H13.6551C13.8836 22.069 14.0689 21.8838 14.0689 21.6552V21.5095C15.8498 21.4485 17.5631 20.9959 18.9323 20.2185C20.2089 19.4935 21.0115 18.5781 21.1987 17.6552H22.4827C23.3194 17.6552 24 16.9745 24 16.1379C24 15.4249 23.5054 14.8255 22.8414 14.6639ZM10.2069 2.75866H13.7931V10.6207C13.7931 10.8953 13.078 11.3104 12 11.3104C10.922 11.3104 10.2069 10.8953 10.2069 10.6207V2.75866ZM1.98619 13.8759C1.98619 10.8797 3.34322 8.11647 5.51723 6.25534V11.7242C5.51723 11.9527 5.70248 12.138 5.93105 12.138C6.15961 12.138 6.34486 11.9528 6.34486 11.7242V5.61822C7.25522 4.98986 8.277 4.50765 9.37936 4.20906V10.6207C9.37936 11.4857 10.506 12.138 12 12.138C13.4941 12.138 14.6207 11.4857 14.6207 10.6207V4.20911C15.723 4.5077 16.7449 4.98995 17.6552 5.61826V11.7242C17.6552 11.9527 17.8405 12.138 18.069 12.138C18.2976 12.138 18.4829 11.9528 18.4829 11.7242V6.25539C20.6569 8.11651 22.0139 10.8797 22.0139 13.8759V14.6173C19.8667 14.5857 18.6284 14.3381 17.3227 14.077C15.9466 13.8018 14.5239 13.5173 12.0001 13.5173C9.47639 13.5173 8.05359 13.8018 6.67762 14.077C5.37192 14.3381 4.13358 14.5857 1.98637 14.6172V13.8759H1.98619ZM9.93103 20.6808C8.30845 20.6188 6.70472 20.1964 5.47631 19.4987C4.50844 18.9491 3.85978 18.2846 3.65545 17.6552H4.50577C4.72805 18.1611 5.34628 18.6592 6.27652 19.0669C7.33552 19.5309 8.61947 19.8055 9.93103 19.8536V20.6808ZM9.93103 18.8965V19.0253C8.74256 18.9766 7.55152 18.722 6.60872 18.3089C6.08531 18.0796 5.74158 17.8479 5.52952 17.6552H10.7587V18.4828H10.3448C10.1163 18.4828 9.93103 18.668 9.93103 18.8965ZM13.2414 21.2414H10.7586V19.3104H13.2414V21.2414ZM11.5862 18.4828V17.6552H12.4138V18.4828H11.5862ZM13.6553 18.4828H13.2414V17.6552H18.4705C18.2585 17.8479 17.9147 18.0795 17.3914 18.3089C16.4486 18.722 15.2575 18.9766 14.0691 19.0253V18.8965C14.069 18.668 13.8838 18.4828 13.6553 18.4828ZM18.5237 19.4988C17.2952 20.1964 15.6915 20.6188 14.069 20.6808V19.8537C15.3805 19.8055 16.6644 19.5309 17.7235 19.0669C18.6538 18.6593 19.272 18.1611 19.4942 17.6552H20.3445C20.1403 18.2846 19.4916 18.9491 18.5237 19.4988ZM22.4827 16.8276H1.51725C1.13695 16.8276 0.827578 16.5182 0.827578 16.1379C0.827578 15.7577 1.13695 15.4483 1.51725 15.4483C1.53469 15.4483 1.55152 15.4481 1.56886 15.448C1.57003 15.4481 1.57125 15.4483 1.57242 15.4483C1.57378 15.4483 1.57519 15.448 1.57655 15.448C4.06294 15.4436 5.47472 15.1615 6.83972 14.8885C8.23777 14.6089 9.55823 14.3448 12 14.3448C14.4418 14.3448 15.7622 14.6089 17.1602 14.8885C18.5252 15.1615 19.937 15.4436 22.4235 15.448C22.4248 15.448 22.4262 15.4483 22.4276 15.4483C22.4288 15.4483 22.43 15.4481 22.4311 15.448C22.4485 15.4481 22.4653 15.4483 22.4827 15.4483C22.863 15.4483 23.1724 15.7576 23.1724 16.1379C23.1724 16.5182 22.863 16.8276 22.4827 16.8276Z" fill="#2F80ED"/>
</svg>
