<svg width="24" height="24" viewBox="0 0 24 24" fill="none" xmlns="http://www.w3.org/2000/svg">
<path d="M20.2577 4.12903H13.9351V1.93547C13.9351 1.72167 13.7618 1.54838 13.548 1.54838H12.3867V0.387094C12.3867 0.173297 12.2134 0 11.9996 0C11.7859 0 11.6126 0.173297 11.6126 0.387094V1.54838H10.4513C10.2375 1.54838 10.0642 1.72167 10.0642 1.93547V4.12903H3.74159C3.52779 4.12903 3.35449 4.30233 3.35449 4.51613V16.9032C3.35449 17.117 3.52779 17.2903 3.74159 17.2903H9.00063L4.50016 21.7908C4.34899 21.942 4.34899 22.1871 4.50016 22.3382C4.57573 22.4138 4.67482 22.4516 4.77387 22.4516C4.87291 22.4516 4.97201 22.4138 5.04757 22.3382L8.03093 19.3548H11.6126V23.6129C11.6126 23.8267 11.7859 24 11.9996 24C12.2134 24 12.3867 23.8267 12.3867 23.6129V19.3548H15.9684L18.9517 22.3382C19.0273 22.4137 19.1264 22.4516 19.2254 22.4516C19.3245 22.4516 19.4236 22.4138 19.4991 22.3382C19.6503 22.187 19.6503 21.9419 19.4991 21.7908L14.9987 17.2903H20.2577C20.4715 17.2903 20.6448 17.117 20.6448 16.9032V4.51613C20.6448 4.30233 20.4715 4.12903 20.2577 4.12903ZM10.8384 2.32256H13.1609V4.12903H10.8384V2.32256ZM11.6126 18.5806H8.80512L10.0954 17.2903H11.6126V18.5806ZM15.1942 18.5806H12.3867V17.2903H13.9038L15.1942 18.5806ZM17.29 16.5161H6.70934V15.2258H17.29V16.5161ZM19.8706 16.5161H18.0641V14.8387C18.0641 14.6249 17.8909 14.4516 17.6771 14.4516H6.32224C6.10845 14.4516 5.93515 14.6249 5.93515 14.8387V16.5161H4.12868V4.90322H19.8706V16.5161Z" fill="#2F80ED"/>
<path d="M5.80604 13.1615H18.1931C18.4069 13.1615 18.5802 12.9882 18.5802 12.7744V6.58082C18.5802 6.36702 18.4069 6.19373 18.1931 6.19373H5.80604C5.59224 6.19373 5.41895 6.36702 5.41895 6.58082V12.7744C5.41895 12.9882 5.59224 13.1615 5.80604 13.1615ZM14.9673 10.1313C15.4179 10.2911 15.7415 10.7214 15.7415 11.226C15.7415 11.4398 15.9148 11.6131 16.1286 11.6131C16.3424 11.6131 16.5157 11.4398 16.5157 11.226C16.5157 10.2913 15.8497 9.50929 14.9673 9.32948V6.96791H17.806V12.3873H14.9673V10.1313ZM6.19313 6.96791H14.1931V12.3873H10.8383V9.03243H10.9674C11.1811 9.03243 11.3544 8.85913 11.3544 8.64534C11.3544 8.43154 11.1811 8.25824 10.9674 8.25824H9.93507C9.72127 8.25824 9.54798 8.43154 9.54798 8.64534C9.54798 8.85913 9.72127 9.03243 9.93507 9.03243H10.0641V12.3873H7.80812C7.96791 11.9367 8.39823 11.6131 8.90284 11.6131C9.11663 11.6131 9.28993 11.4398 9.28993 11.226C9.28993 11.0122 9.11663 10.8389 8.90284 10.8389C7.96815 10.8389 7.18613 11.5049 7.00632 12.3873H6.19318V6.96791H6.19313Z" fill="#2F80ED"/>
</svg>
