<svg width="24" height="24" viewBox="0 0 24 24" fill="none" xmlns="http://www.w3.org/2000/svg">
<g clip-path="url(#clip0)">
<path d="M23.8354 2.29031C23.7317 2.21203 23.5974 2.18713 23.4726 2.22271L15.8621 4.3972L8.25164 2.22271C8.17734 2.20148 8.09859 2.20148 8.0243 2.22271L0.300141 4.42963C0.122484 4.48045 0 4.64278 0 4.82756V21.3793C0 21.5091 0.0609844 21.6314 0.164578 21.7096C0.237234 21.7644 0.324891 21.7931 0.413859 21.7931C0.451875 21.7931 0.490125 21.7878 0.527531 21.7772L8.13797 19.6027L15.7484 21.7772C15.8227 21.7984 15.9015 21.7984 15.9757 21.7772L23.6999 19.5703C23.8776 19.5195 24 19.3572 24 19.1724V2.62063C24 2.49074 23.939 2.36849 23.8354 2.29031ZM7.72416 12.8094C7.57392 12.9053 7.49756 13.0915 7.54903 13.2717C7.57781 13.3724 7.64227 13.4527 7.72416 13.5052V15.5499L3.58622 16.7322V14.8342L4.08183 14.6926C4.30158 14.6299 4.4288 14.4008 4.36603 14.1811C4.30327 13.9614 4.07405 13.834 3.85448 13.897L3.58622 13.9735V10.7169C4.52944 10.5247 5.24137 9.68873 5.24137 8.68963C5.24137 8.46107 5.05613 8.27582 4.82756 8.27582C4.599 8.27582 4.41375 8.46102 4.41375 8.68963C4.41375 9.22907 4.06777 9.68896 3.58617 9.85982V7.66185L7.72411 6.47957V12.8094H7.72416ZM7.72416 5.61885L3.05873 6.95174C2.88108 7.00256 2.75864 7.16489 2.75864 7.34967V14.5123V14.5125V17.2807C2.75864 17.4106 2.81953 17.5328 2.92322 17.611C3.02691 17.6892 3.16116 17.7144 3.28608 17.6786L7.72416 16.4106V18.8601L0.827578 20.8307V5.13965L7.72411 3.16921V5.61885H7.72416ZM15.4483 20.8306L8.55173 18.8601V16.4106L15.4483 18.381V20.8306ZM15.4483 11.202V11.2022V17.5204L8.55173 15.55V6.47953L11.5862 7.34653V7.86215C11.5862 8.09071 11.7715 8.27596 12 8.27596C12.2286 8.27596 12.4139 8.09076 12.4139 7.86215V7.58296L15.4484 8.44996V11.202H15.4483ZM15.4483 7.58934L8.55173 5.6189V3.16926L15.4483 5.13974V7.58934ZM16.2758 11.5239L16.7715 11.3823C16.9912 11.3196 17.1184 11.0905 17.0557 10.8708C16.9929 10.6511 16.7637 10.5235 16.5441 10.5867L16.2758 10.6632V8.44996L20.4138 7.26773V9.49907C20.2635 9.59498 20.1872 9.78117 20.2387 9.96135C20.2674 10.0621 20.3319 10.1424 20.4138 10.1949V13.283C19.4706 13.4752 18.7586 14.3112 18.7586 15.3103C18.7586 15.5389 18.9439 15.7241 19.1724 15.7241C19.401 15.7241 19.5863 15.5389 19.5863 15.3103C19.5863 14.7709 19.9322 14.311 20.4138 14.1401V16.3381L16.2759 17.5204V11.5239H16.2758ZM23.1724 18.8602L16.2759 20.8307V18.381L20.9413 17.0481C21.1189 16.9973 21.2414 16.835 21.2414 16.6502V6.7192C21.2414 6.58931 21.1804 6.46706 21.0768 6.38887C20.9731 6.31063 20.8388 6.28542 20.714 6.32132L16.2759 7.58929V5.1397L23.1724 3.16921V18.8602Z" fill="#2F80ED"/>
<path d="M19.443 10.1888C19.3802 9.96911 19.151 9.84166 18.9314 9.90466L18.1357 10.132C17.9159 10.1948 17.7887 10.4238 17.8515 10.6435C17.9034 10.8252 18.069 10.9437 18.2491 10.9437C18.2868 10.9437 18.325 10.9385 18.3631 10.9276L19.1588 10.7003C19.3785 10.6375 19.5057 10.4085 19.443 10.1888Z" fill="#2F80ED"/>
<path d="M5.16204 13.9537C5.21398 14.1355 5.37963 14.2539 5.55968 14.2539C5.59732 14.2539 5.63562 14.2487 5.67354 14.2378L6.46929 14.0105C6.68904 13.9477 6.81626 13.7187 6.75349 13.499C6.69077 13.2793 6.46174 13.1518 6.24199 13.2148L5.44624 13.4422C5.22644 13.5051 5.09923 13.734 5.16204 13.9537Z" fill="#2F80ED"/>
<path d="M10.4989 14.0141C10.4362 14.2338 10.5634 14.4629 10.7831 14.5256L12.99 15.1563C13.028 15.1671 13.0663 15.1723 13.1039 15.1723C13.2839 15.1723 13.4496 15.0538 13.5016 14.872C13.5644 14.6523 13.4371 14.4233 13.2174 14.3605L11.0105 13.7299C10.791 13.667 10.5618 13.7944 10.4989 14.0141Z" fill="#2F80ED"/>
<path d="M11.9997 10.7586C12.2283 10.7586 12.4136 10.5734 12.4136 10.3448V9.51721C12.4136 9.28864 12.2283 9.10339 11.9997 9.10339C11.7712 9.10339 11.5859 9.2886 11.5859 9.51721V10.3448C11.5859 10.5733 11.7712 10.7586 11.9997 10.7586Z" fill="#2F80ED"/>
<path d="M11.9997 13.2414C12.2283 13.2414 12.4136 13.0562 12.4136 12.8276V12C12.4136 11.7714 12.2283 11.5862 11.9997 11.5862C11.7712 11.5862 11.5859 11.7714 11.5859 12V12.8276C11.5859 13.0562 11.7712 13.2414 11.9997 13.2414Z" fill="#2F80ED"/>
</g>
<defs>
<clipPath id="clip0">
<rect width="24" height="24" fill="white"/>
</clipPath>
</defs>
</svg>
