<?xml version='1.0' encoding='UTF-8' standalone='no'?>
<!-- Created with Inkscape (http://www.inkscape.org/) -->
<svg version="1.1" sodipodi:docname="your_logo.svg" height="100" xmlns:cc="http://creativecommons.org/ns#" xmlns:sodipodi="http://sodipodi.sourceforge.net/DTD/sodipodi-0.dtd" xmlns:inkscape="http://www.inkscape.org/namespaces/inkscape" xmlns:dc="http://purl.org/dc/elements/1.1/" xmlns:rdf="http://www.w3.org/1999/02/22-rdf-syntax-ns#" inkscape:version="0.92.1 r15371" id="svg8" xmlns:svg="http://www.w3.org/2000/svg" viewBox="0 0 58.208332 26.458334" width="220" xmlns="http://www.w3.org/2000/svg">
 <defs id="defs2"/>
 <sodipodi:namedview inkscape:cy="50" inkscape:window-x="3829" inkscape:window-width="3840" borderopacity="1.0" pagecolor="#807d7d" fit-margin-left="0" fit-margin-right="0" bordercolor="#666666" fit-margin-top="0" units="px" showgrid="true" inkscape:window-maximized="1" inkscape:pageopacity="0" inkscape:current-layer="layer1" inkscape:document-units="mm" inkscape:window-height="2066" inkscape:pageshadow="2" inkscape:cx="110" id="base" inkscape:zoom="15.168182" inkscape:pagecheckerboard="false" fit-margin-bottom="0" inkscape:window-y="-11">
  <inkscape:grid type="xygrid" originy="0.26430574" originx="16.83334" empspacing="2" spacingx="2.6458333" id="grid10" spacingy="2.6458333" dotted="false"/>
 </sodipodi:namedview>
 <metadata id="metadata5">
  <rdf:RDF>
   <cc:Work rdf:about="">
    <dc:format>image/svg+xml</dc:format>
    <dc:type rdf:resource="http://purl.org/dc/dcmitype/StillImage"/>
    <dc:title/>
   </cc:Work>
  </rdf:RDF>
 </metadata>
 <g transform="translate(16.83334,-270.80597)" id="layer1" inkscape:label="Layer 1" inkscape:groupmode="layer">
  <g transform="matrix(0.9819729,0,0,0.98001997,-0.29867833,5.9340755)" id="g4596" style="stroke-width:1.01937222">
   <g transform="matrix(0.99856772,0,0,0.99856772,-0.40996262,0.42538785)" style="fill:#ffffff;stroke:#ffffff;stroke-width:0.54019147;stroke-linecap:round;stroke-linejoin:round;stroke-miterlimit:2;stroke-dasharray:none;stroke-opacity:0.50196078" id="g4519">
    <g aria-label="YOUR" id="text4485" style="font-style:normal;font-variant:normal;font-weight:normal;font-stretch:normal;font-size:10.63343811px;line-height:1.25;font-family:Chalkduster;-inkscape-font-specification:'Chalkduster, Normal';font-variant-ligatures:normal;font-variant-caps:normal;font-variant-numeric:normal;text-align:start;letter-spacing:0px;word-spacing:0px;writing-mode:lr-tb;text-anchor:start;fill:#ffffff;fill-opacity:1;stroke:#ffffff;stroke-width:0.54019147;stroke-linecap:round;stroke-linejoin:round;stroke-miterlimit:2;stroke-dasharray:none;stroke-opacity:0.50196078">
     <path inkscape:connector-curvature="0" id="path4546" style="font-style:normal;font-variant:normal;font-weight:normal;font-stretch:normal;font-size:10.63343811px;font-family:sans-serif;-inkscape-font-specification:'sans-serif, Normal';font-variant-ligatures:normal;font-variant-caps:normal;font-variant-numeric:normal;font-feature-settings:normal;text-align:start;writing-mode:lr-tb;text-anchor:start;fill:#ffffff;stroke:#ffffff;stroke-width:0.54019147;stroke-linecap:round;stroke-linejoin:round;stroke-miterlimit:2;stroke-dasharray:none;stroke-opacity:0.50196078" d="m 4.7089167,270.66464 -2.7206648,4.3406 v 3.39045 H 0.96021441 v -3.28141 l -2.73104901,-4.44964 h 1.13707171 l 2.11318819,3.45795 2.1339565,-3.45795 z"/>
     <path inkscape:connector-curvature="0" id="path4548" style="font-style:normal;font-variant:normal;font-weight:normal;font-stretch:normal;font-size:10.63343811px;font-family:sans-serif;-inkscape-font-specification:'sans-serif, Normal';font-variant-ligatures:normal;font-variant-caps:normal;font-variant-numeric:normal;font-feature-settings:normal;text-align:start;writing-mode:lr-tb;text-anchor:start;fill:#ffffff;stroke:#ffffff;stroke-width:0.54019147;stroke-linecap:round;stroke-linejoin:round;stroke-miterlimit:2;stroke-dasharray:none;stroke-opacity:0.50196078" d="m 11.437889,271.55249 q 0.472482,0.51921 0.721703,1.27207 0.254413,0.75285 0.254413,1.7082 0,0.95535 -0.259605,1.7134 -0.254413,0.75285 -0.716511,1.25649 -0.477674,0.5244 -1.13188,0.7892 -0.6490131,0.2648 -1.4849426,0.2648 -0.815161,0 -1.484943,-0.26999 -0.6645899,-0.26999 -1.1318796,-0.78401 -0.4672898,-0.51402 -0.7217031,-1.26168 -0.2492212,-0.74767 -0.2492212,-1.70821 0,-0.94496 0.2492212,-1.69263 0.2492212,-0.75285 0.7268952,-1.28764 0.4569055,-0.50882 1.1318796,-0.77881 0.6801662,-0.26999 1.4797509,-0.26999 0.8307374,0 1.4901356,0.27518 0.664589,0.26999 1.126687,0.77362 z m -0.09346,2.98027 q 0,-1.50571 -0.674974,-2.32087 -0.6749741,-0.82035 -1.8431985,-0.82035 -1.1786086,0 -1.8535827,0.82035 -0.669782,0.81516 -0.669782,2.32087 0,1.52129 0.6853583,2.33126 0.6853584,0.80478 1.8380064,0.80478 1.1526481,0 1.8328145,-0.80478 0.685358,-0.80997 0.685358,-2.33126 z"/>
     <path inkscape:connector-curvature="0" id="path4550" style="font-style:normal;font-variant:normal;font-weight:normal;font-stretch:normal;font-size:10.63343811px;font-family:sans-serif;-inkscape-font-specification:'sans-serif, Normal';font-variant-ligatures:normal;font-variant-caps:normal;font-variant-numeric:normal;font-feature-settings:normal;text-align:start;writing-mode:lr-tb;text-anchor:start;fill:#ffffff;stroke:#ffffff;stroke-width:0.54019147;stroke-linecap:round;stroke-linejoin:round;stroke-miterlimit:2;stroke-dasharray:none;stroke-opacity:0.50196078" d="m 19.864681,275.29081 q 0,0.84112 -0.186916,1.46937 -0.181724,0.62305 -0.602285,1.03842 -0.399792,0.3946 -0.934579,0.57632 -0.534787,0.18173 -1.246106,0.18173 -0.726895,0 -1.266875,-0.19211 -0.539979,-0.19211 -0.908619,-0.56594 -0.42056,-0.42575 -0.607476,-1.02804 -0.181724,-0.60228 -0.181724,-1.47975 v -4.62617 h 1.028037 v 4.67809 q 0,0.62825 0.08307,0.99169 0.08827,0.36345 0.290758,0.6594 0.228453,0.33749 0.617861,0.50883 0.3946,0.17134 0.944964,0.17134 0.555555,0 0.944963,-0.16615 0.389409,-0.17134 0.623053,-0.51402 0.202493,-0.29595 0.285566,-0.67497 0.08827,-0.38422 0.08827,-0.95016 v -4.70405 h 1.028038 z"/>
     <path inkscape:connector-curvature="0" id="path4552" style="font-style:normal;font-variant:normal;font-weight:normal;font-stretch:normal;font-size:10.63343811px;font-family:sans-serif;-inkscape-font-specification:'sans-serif, Normal';font-variant-ligatures:normal;font-variant-caps:normal;font-variant-numeric:normal;font-feature-settings:normal;text-align:start;writing-mode:lr-tb;text-anchor:start;fill:#ffffff;stroke:#ffffff;stroke-width:0.54019147;stroke-linecap:round;stroke-linejoin:round;stroke-miterlimit:2;stroke-dasharray:none;stroke-opacity:0.50196078" d="m 28.229168,278.39569 h -1.334372 l -2.58567,-3.07373 h -1.448598 v 3.07373 H 21.83249 v -7.73105 h 2.16511 q 0.700934,0 1.168224,0.0935 0.46729,0.0883 0.841122,0.32191 0.42056,0.2648 0.654205,0.66978 0.238837,0.39979 0.238837,1.01766 0,0.83592 -0.420561,1.40186 -0.42056,0.56075 -1.15784,0.84632 z m -2.403946,-5.55556 q 0,-0.33229 -0.119419,-0.5867 -0.114226,-0.25961 -0.384216,-0.43614 -0.22326,-0.15057 -0.529595,-0.20768 -0.306334,-0.0623 -0.721703,-0.0623 h -1.209761 v 2.91796 h 1.038422 q 0.488058,0 0.851505,-0.0831 0.363448,-0.0883 0.617861,-0.32191 0.233645,-0.21807 0.342679,-0.49844 0.114227,-0.28557 0.114227,-0.72171 z"/>
    </g>
    <g aria-label="LOGO" id="text4485-1" style="font-style:normal;font-variant:normal;font-weight:normal;font-stretch:normal;font-size:9.9869957px;line-height:1.25;font-family:Chalkduster;-inkscape-font-specification:'Chalkduster, Normal';font-variant-ligatures:normal;font-variant-caps:normal;font-variant-numeric:normal;text-align:start;letter-spacing:0px;word-spacing:0px;writing-mode:lr-tb;text-anchor:start;fill:#ffffff;fill-opacity:1;stroke:#ffffff;stroke-width:0.54019147;stroke-linecap:round;stroke-linejoin:round;stroke-miterlimit:2;stroke-dasharray:none;stroke-opacity:0.50196078">
     <path inkscape:connector-curvature="0" id="path4555" style="font-style:normal;font-variant:normal;font-weight:bold;font-stretch:normal;font-size:9.9869957px;font-family:sans-serif;-inkscape-font-specification:'sans-serif Bold';font-variant-ligatures:normal;font-variant-caps:normal;font-variant-numeric:normal;font-feature-settings:normal;text-align:start;writing-mode:lr-tb;text-anchor:start;fill:#ffffff;stroke:#ffffff;stroke-width:0.54019147;stroke-linecap:round;stroke-linejoin:round;stroke-miterlimit:2;stroke-dasharray:none;stroke-opacity:0.50196078" d="m 3.4664882,287.14725 h -5.237321 v -7.26106 h 1.87256166 v 5.85664 H 3.4664882 Z"/>
     <path inkscape:connector-curvature="0" id="path4557" style="font-style:normal;font-variant:normal;font-weight:bold;font-stretch:normal;font-size:9.9869957px;font-family:sans-serif;-inkscape-font-specification:'sans-serif Bold';font-variant-ligatures:normal;font-variant-caps:normal;font-variant-numeric:normal;font-feature-settings:normal;text-align:start;writing-mode:lr-tb;text-anchor:start;fill:#ffffff;stroke:#ffffff;stroke-width:0.54019147;stroke-linecap:round;stroke-linejoin:round;stroke-miterlimit:2;stroke-dasharray:none;stroke-opacity:0.50196078" d="m 11.649192,283.51916 q 0,1.73602 -0.994798,2.76008 -0.9947984,1.01918 -2.7503249,1.01918 -1.7506502,0 -2.7454486,-1.01918 -0.9947984,-1.02406 -0.9947984,-2.76008 0,-1.75065 0.9947984,-2.76496 0.9947984,-1.01918 2.7454486,-1.01918 1.7457736,0 2.7454489,1.01918 0.999674,1.01431 0.999674,2.76496 z m -2.4821191,1.83843 q 0.2730819,-0.3316 0.4047464,-0.78024 0.1316645,-0.45351 0.1316645,-1.06307 0,-0.65344 -0.1511703,-1.11183 -0.1511704,-0.45839 -0.3949935,-0.74122 -0.2486996,-0.29259 -0.5754226,-0.42426 -0.3218466,-0.13166 -0.6729519,-0.13166 -0.3559818,0 -0.6729518,0.12679 -0.3120937,0.12679 -0.5754226,0.41937 -0.2438232,0.27309 -0.39987,0.75586 -0.1511703,0.47789 -0.1511703,1.11183 0,0.64857 0.1462938,1.10696 0.1511704,0.45351 0.3949935,0.74122 0.2438232,0.28771 0.5705462,0.42425 0.326723,0.13654 0.6875812,0.13654 0.3608583,0 0.6875813,-0.13654 0.326723,-0.14142 0.5705461,-0.434 z"/>
     <path inkscape:connector-curvature="0" id="path4559" style="font-style:normal;font-variant:normal;font-weight:bold;font-stretch:normal;font-size:9.9869957px;font-family:sans-serif;-inkscape-font-specification:'sans-serif Bold';font-variant-ligatures:normal;font-variant-caps:normal;font-variant-numeric:normal;font-feature-settings:normal;text-align:start;writing-mode:lr-tb;text-anchor:start;fill:#ffffff;stroke:#ffffff;stroke-width:0.54019147;stroke-linecap:round;stroke-linejoin:round;stroke-miterlimit:2;stroke-dasharray:none;stroke-opacity:0.50196078" d="m 19.495421,286.73275 q -0.487646,0.19018 -1.292263,0.38036 -0.804616,0.18531 -1.604356,0.18531 -1.853056,0 -2.901495,-1.00455 -1.04844,-1.00943 -1.04844,-2.78446 0,-1.69214 1.058193,-2.72595 1.058192,-1.03868 2.950259,-1.03868 0.71684,0 1.36541,0.13166 0.64857,0.12679 1.443433,0.51203 v 1.70189 h -0.209688 q -0.136541,-0.10241 -0.39987,-0.28772 -0.263329,-0.19018 -0.507152,-0.32184 -0.282835,-0.15605 -0.663199,-0.26821 -0.375488,-0.11216 -0.79974,-0.11216 -0.497399,0 -0.902145,0.1463 -0.404747,0.14629 -0.726593,0.44863 -0.307217,0.29259 -0.487647,0.7461 -0.175552,0.44864 -0.175552,1.03869 0,1.20448 0.638816,1.8433 0.638817,0.63882 1.887191,0.63882 0.107283,0 0.234071,-0.005 0.131664,-0.005 0.238946,-0.0146 v -1.42393 h -1.448309 v -1.37028 h 3.35013 z"/>
     <path inkscape:connector-curvature="0" id="path4561" style="font-style:normal;font-variant:normal;font-weight:bold;font-stretch:normal;font-size:9.9869957px;font-family:sans-serif;-inkscape-font-specification:'sans-serif Bold';font-variant-ligatures:normal;font-variant-caps:normal;font-variant-numeric:normal;font-feature-settings:normal;text-align:start;writing-mode:lr-tb;text-anchor:start;fill:#ffffff;stroke:#ffffff;stroke-width:0.54019147;stroke-linecap:round;stroke-linejoin:round;stroke-miterlimit:2;stroke-dasharray:none;stroke-opacity:0.50196078" d="m 28.229166,283.51916 q 0,1.73602 -0.994798,2.76008 -0.994799,1.01918 -2.750325,1.01918 -1.75065,0 -2.745449,-1.01918 -0.994798,-1.02406 -0.994798,-2.76008 0,-1.75065 0.994798,-2.76496 0.994799,-1.01918 2.745449,-1.01918 1.745773,0 2.745448,1.01918 0.999675,1.01431 0.999675,2.76496 z m -2.482119,1.83843 q 0.273082,-0.3316 0.404746,-0.78024 0.131665,-0.45351 0.131665,-1.06307 0,-0.65344 -0.151171,-1.11183 -0.15117,-0.45839 -0.394993,-0.74122 -0.2487,-0.29259 -0.575423,-0.42426 -0.321846,-0.13166 -0.672952,-0.13166 -0.355982,0 -0.672952,0.12679 -0.312093,0.12679 -0.575422,0.41937 -0.243823,0.27309 -0.39987,0.75586 -0.151171,0.47789 -0.151171,1.11183 0,0.64857 0.146294,1.10696 0.151171,0.45351 0.394994,0.74122 0.243823,0.28771 0.570546,0.42425 0.326723,0.13654 0.687581,0.13654 0.360858,0 0.687581,-0.13654 0.326723,-0.14142 0.570547,-0.434 z"/>
    </g>
    <g aria-label="HERE" id="text4485-6" style="font-style:normal;font-variant:normal;font-weight:normal;font-stretch:normal;font-size:11.7229538px;line-height:1.25;font-family:Chalkduster;-inkscape-font-specification:'Chalkduster, Normal';font-variant-ligatures:normal;font-variant-caps:normal;font-variant-numeric:normal;text-align:start;letter-spacing:0px;word-spacing:0px;writing-mode:lr-tb;text-anchor:start;fill:#ffffff;fill-opacity:1;stroke:#ffffff;stroke-width:0.54019147;stroke-linecap:round;stroke-linejoin:round;stroke-miterlimit:2;stroke-dasharray:none;stroke-opacity:0.50196078">
     <path inkscape:connector-curvature="0" id="path4564" style="font-style:normal;font-variant:normal;font-weight:normal;font-stretch:normal;font-size:11.7229538px;font-family:sans-serif;-inkscape-font-specification:'sans-serif, Normal';font-variant-ligatures:normal;font-variant-caps:normal;font-variant-numeric:normal;font-feature-settings:normal;text-align:start;writing-mode:lr-tb;text-anchor:start;fill:#ffffff;stroke:#ffffff;stroke-width:0.54019147;stroke-linecap:round;stroke-linejoin:round;stroke-miterlimit:2;stroke-dasharray:none;stroke-opacity:0.50196078" d="M 4.7489142,296.99997 H 3.6155427 v -4.17287 h -4.25300519 v 4.17287 H -1.770834 v -8.52318 h 1.13337151 v 3.34287 H 3.6155427 v -3.34287 h 1.1333715 z"/>
     <path inkscape:connector-curvature="0" id="path4566" style="font-style:normal;font-variant:normal;font-weight:normal;font-stretch:normal;font-size:11.7229538px;font-family:sans-serif;-inkscape-font-specification:'sans-serif, Normal';font-variant-ligatures:normal;font-variant-caps:normal;font-variant-numeric:normal;font-feature-settings:normal;text-align:start;writing-mode:lr-tb;text-anchor:start;fill:#ffffff;stroke:#ffffff;stroke-width:0.54019147;stroke-linecap:round;stroke-linejoin:round;stroke-miterlimit:2;stroke-dasharray:none;stroke-opacity:0.50196078" d="M 12.659619,296.99997 H 7.0442781 v -8.52318 h 5.6153409 v 1.00744 H 8.1776496 v 2.33543 h 4.4819694 v 1.00744 H 8.1776496 v 3.16543 h 4.4819694 z"/>
     <path inkscape:connector-curvature="0" id="path4568" style="font-style:normal;font-variant:normal;font-weight:normal;font-stretch:normal;font-size:11.7229538px;font-family:sans-serif;-inkscape-font-specification:'sans-serif, Normal';font-variant-ligatures:normal;font-variant-caps:normal;font-variant-numeric:normal;font-feature-settings:normal;text-align:start;writing-mode:lr-tb;text-anchor:start;fill:#ffffff;stroke:#ffffff;stroke-width:0.54019147;stroke-linecap:round;stroke-linejoin:round;stroke-miterlimit:2;stroke-dasharray:none;stroke-opacity:0.50196078" d="m 21.514799,296.99997 h -1.471094 l -2.850601,-3.38867 h -1.597023 v 3.38867 h -1.133372 v -8.52318 h 2.386949 q 0.772754,0 1.287923,0.10303 0.515169,0.0973 0.927304,0.35489 0.463652,0.29193 0.721236,0.73841 0.263309,0.44076 0.263309,1.12193 0,0.92158 -0.463652,1.5455 -0.463652,0.61821 -1.276474,0.93303 z m -2.650258,-6.12479 q 0,-0.36634 -0.131654,-0.64682 -0.12593,-0.2862 -0.423583,-0.48082 -0.246137,-0.166 -0.583858,-0.22897 -0.337722,-0.0687 -0.79565,-0.0687 h -1.333715 v 3.21695 h 1.14482 q 0.538065,0 0.938752,-0.0916 0.400687,-0.0973 0.681167,-0.35489 0.257585,-0.24041 0.377791,-0.54952 0.12593,-0.31482 0.12593,-0.79565 z"/>
     <path inkscape:connector-curvature="0" id="path4570" style="font-style:normal;font-variant:normal;font-weight:normal;font-stretch:normal;font-size:11.7229538px;font-family:sans-serif;-inkscape-font-specification:'sans-serif, Normal';font-variant-ligatures:normal;font-variant-caps:normal;font-variant-numeric:normal;font-feature-settings:normal;text-align:start;writing-mode:lr-tb;text-anchor:start;fill:#ffffff;stroke:#ffffff;stroke-width:0.54019147;stroke-linecap:round;stroke-linejoin:round;stroke-miterlimit:2;stroke-dasharray:none;stroke-opacity:0.50196078" d="m 28.229167,296.99997 h -5.61534 v -8.52318 h 5.61534 v 1.00744 h -4.481969 v 2.33543 h 4.481969 v 1.00744 h -4.481969 v 3.16543 h 4.481969 z"/>
    </g>
   </g>
   <g aria-label="{" id="text4523" style="font-style:normal;font-variant:normal;font-weight:normal;font-stretch:normal;font-size:27.81656456px;line-height:1.25;font-family:sans-serif;-inkscape-font-specification:'sans-serif, Normal';font-variant-ligatures:normal;font-variant-caps:normal;font-variant-numeric:normal;font-feature-settings:normal;text-align:start;letter-spacing:0px;word-spacing:0px;writing-mode:lr-tb;text-anchor:start;fill:#ffffff;fill-opacity:1;stroke:#ffffff;stroke-width:0.53941786;stroke-linecap:round;stroke-linejoin:round;stroke-miterlimit:2;stroke-dasharray:none;stroke-opacity:0.50196078">
    <path inkscape:connector-curvature="0" id="path4573" style="fill:#ffffff;stroke:#ffffff;stroke-width:0.53941786;stroke-linecap:round;stroke-linejoin:round;stroke-miterlimit:2;stroke-dasharray:none;stroke-opacity:0.50196078" d="m -3.8011244,296.99998 h -2.037346 q -2.4312329,0 -3.9524513,-1.35823 -1.5076363,-1.34464 -1.5076363,-3.89812 v -2.02376 q 0,-2.29541 -1.127331,-3.58573 -1.127332,-1.3039 -3.449906,-1.3039 h -0.692698 v -2.11884 h 0.692698 q 2.322574,0 3.449906,-1.29032 1.127331,-1.3039 1.127331,-3.59931 V 275.798 q 0,-2.55347 1.5076363,-3.89812 1.5212184,-1.35823 3.9524513,-1.35823 h 2.037346 v 1.87436 h -1.548383 q -1.8471937,0 -2.6892967,0.85568 -0.8285207,0.85569 -0.8285207,2.75721 v 2.37691 q 0,1.88794 -1.0458377,3.17826 -1.0458375,1.27673 -2.9066135,2.02376 v 0.32598 q 1.860776,0.74702 2.9066135,2.03734 1.0458377,1.27674 1.0458377,3.16468 v 2.3769 q 0,1.90153 0.8285207,2.75721 0.842103,0.85569 2.6892967,0.85569 h 1.548383 z"/>
   </g>
   <g transform="scale(-1,1)" aria-label="{" id="text4523-8" style="font-style:normal;font-variant:normal;font-weight:normal;font-stretch:normal;font-size:27.81656647px;line-height:1.25;font-family:sans-serif;-inkscape-font-specification:'sans-serif, Normal';font-variant-ligatures:normal;font-variant-caps:normal;font-variant-numeric:normal;font-feature-settings:normal;text-align:start;letter-spacing:0px;word-spacing:0px;writing-mode:lr-tb;text-anchor:start;fill:#ffffff;fill-opacity:1;stroke:#ffffff;stroke-width:0.53941786;stroke-linecap:round;stroke-linejoin:round;stroke-miterlimit:2;stroke-dasharray:none;stroke-opacity:0.50196078">
    <path inkscape:connector-curvature="0" id="path4543" style="fill:#ffffff;stroke:#ffffff;stroke-width:0.53941786;stroke-linecap:round;stroke-linejoin:round;stroke-miterlimit:2;stroke-dasharray:none;stroke-opacity:0.50196078" d="m -29.401637,296.99998 h -2.037346 q -2.431233,0 -3.952452,-1.35823 -1.507636,-1.34464 -1.507636,-3.89812 v -2.02376 q 0,-2.29541 -1.127331,-3.58573 -1.127332,-1.3039 -3.449906,-1.3039 h -0.692698 v -2.11884 h 0.692698 q 2.322574,0 3.449906,-1.29032 1.127331,-1.3039 1.127331,-3.59931 V 275.798 q 0,-2.55347 1.507636,-3.89812 1.521219,-1.35823 3.952452,-1.35823 h 2.037346 v 1.87436 h -1.548383 q -1.847194,0 -2.689297,0.85568 -0.828521,0.85569 -0.828521,2.75721 v 2.37691 q 0,1.88794 -1.045837,3.17826 -1.045838,1.27673 -2.906614,2.02376 v 0.32597 q 1.860776,0.74703 2.906614,2.03735 1.045837,1.27674 1.045837,3.16468 v 2.3769 q 0,1.90153 0.828521,2.75721 0.842103,0.85569 2.689297,0.85569 h 1.548383 z"/>
   </g>
  </g>
 </g>
</svg>
