<svg width="167" height="34" viewBox="0 0 167 34" fill="none" xmlns="http://www.w3.org/2000/svg">
<path d="M19.1859 0.480306C23.6977 1.59915 26.4638 4.40809 26.8761 9.0601C27.2966 13.8064 25.3171 17.5403 21.3709 20.2621C18.6751 22.1217 15.8895 22.3513 12.8855 20.8762C13.8848 20.6924 14.8882 20.5293 15.8823 20.3207C20.7211 19.3063 24.113 15.0102 23.9029 10.1786C23.7567 6.81603 21.7013 4.41185 18.4011 3.74363C13.2015 2.69093 8.47698 5.42697 7.62949 9.97825C7.25742 11.9769 7.91775 13.8147 8.51569 15.6593C8.76036 16.4147 9.05614 17.1536 9.13882 18.003C6.3994 16.3083 4.42104 14.0985 4.05912 10.7667C3.69343 7.39781 4.66307 4.60879 7.58138 2.62779C9.48909 1.33269 12.127 0.489702 13.8183 0.113873C15.5095 -0.261956 18.8882 0.406644 19.1859 0.480306Z" fill="white"/>
<path d="M14.727 9.1105C14.2335 14.6352 12.4393 19.79 10.0291 24.7431C8.8817 27.101 7.54977 29.3658 6.05322 31.5272C5.05088 32.9749 1.94541 33.9532 0.429312 33.132C-0.556487 32.5979 0.419541 32.1255 0.744633 31.7827C3.3728 29.0103 5.70031 26.0063 7.82412 22.8335C10.6883 18.554 12.8208 13.9181 14.727 9.1105Z" fill="white"/>
<path d="M17.2645 23.6025C18.5668 26.6377 20.0555 29.5654 21.9883 32.2417C22.1037 32.4014 22.1173 32.8558 22.0229 32.9118C21.0461 33.492 19.963 33.1504 18.9223 33.1899C18.2068 33.2173 17.7061 32.8693 17.6261 32.1221C17.3284 29.3414 17.0526 26.558 16.7685 23.7757C16.9338 23.7182 17.0992 23.6604 17.2645 23.6025Z" fill="white"/>
<path d="M51.6992 18.6602V25H48.7344V7.9375H55.2617C57.168 7.9375 58.6797 8.43359 59.7969 9.42578C60.9219 10.418 61.4844 11.7305 61.4844 13.3633C61.4844 15.0352 60.9336 16.3359 59.832 17.2656C58.7383 18.1953 57.2031 18.6602 55.2266 18.6602H51.6992ZM51.6992 16.2812H55.2617C56.3164 16.2812 57.1211 16.0352 57.6758 15.543C58.2305 15.043 58.5078 14.3242 58.5078 13.3867C58.5078 12.4648 58.2266 11.7305 57.6641 11.1836C57.1016 10.6289 56.3281 10.3438 55.3438 10.3281H51.6992V16.2812Z" fill="white"/>
<path d="M70.4492 14.9219C70.0742 14.8594 69.6875 14.8281 69.2891 14.8281C67.9844 14.8281 67.1055 15.3281 66.6523 16.3281V25H63.8047V12.3203H66.5234L66.5938 13.7383C67.2812 12.6367 68.2344 12.0859 69.4531 12.0859C69.8594 12.0859 70.1953 12.1406 70.4609 12.25L70.4492 14.9219Z" fill="white"/>
<path d="M77.5977 25.2344C75.793 25.2344 74.3281 24.668 73.2031 23.5352C72.0859 22.3945 71.5273 20.8789 71.5273 18.9883V18.6367C71.5273 17.3711 71.7695 16.2422 72.2539 15.25C72.7461 14.25 73.4336 13.4727 74.3164 12.918C75.1992 12.3633 76.1836 12.0859 77.2695 12.0859C78.9961 12.0859 80.3281 12.6367 81.2656 13.7383C82.2109 14.8398 82.6836 16.3984 82.6836 18.4141V19.5625H74.3984C74.4844 20.6094 74.832 21.4375 75.4414 22.0469C76.0586 22.6562 76.832 22.9609 77.7617 22.9609C79.0664 22.9609 80.1289 22.4336 80.9492 21.3789L82.4844 22.8438C81.9766 23.6016 81.2969 24.1914 80.4453 24.6133C79.6016 25.0273 78.6523 25.2344 77.5977 25.2344ZM77.2578 14.3711C76.4766 14.3711 75.8438 14.6445 75.3594 15.1914C74.8828 15.7383 74.5781 16.5 74.4453 17.4766H79.8711V17.2656C79.8086 16.3125 79.5547 15.5938 79.1094 15.1094C78.6641 14.6172 78.0469 14.3711 77.2578 14.3711Z" fill="white"/>
<path d="M92.0117 21.5547C92.0117 21.0469 91.8008 20.6602 91.3789 20.3945C90.9648 20.1289 90.2734 19.8945 89.3047 19.6914C88.3359 19.4883 87.5273 19.2305 86.8789 18.918C85.457 18.2305 84.7461 17.2344 84.7461 15.9297C84.7461 14.8359 85.207 13.9219 86.1289 13.1875C87.0508 12.4531 88.2227 12.0859 89.6445 12.0859C91.1602 12.0859 92.3828 12.4609 93.3125 13.2109C94.25 13.9609 94.7188 14.9336 94.7188 16.1289H91.8711C91.8711 15.582 91.668 15.1289 91.2617 14.7695C90.8555 14.4023 90.3164 14.2188 89.6445 14.2188C89.0195 14.2188 88.5078 14.3633 88.1094 14.6523C87.7188 14.9414 87.5234 15.3281 87.5234 15.8125C87.5234 16.25 87.707 16.5898 88.0742 16.832C88.4414 17.0742 89.1836 17.3203 90.3008 17.5703C91.418 17.8125 92.293 18.1055 92.9258 18.4492C93.5664 18.7852 94.0391 19.1914 94.3438 19.668C94.6562 20.1445 94.8125 20.7227 94.8125 21.4023C94.8125 22.543 94.3398 23.4688 93.3945 24.1797C92.4492 24.8828 91.2109 25.2344 89.6797 25.2344C88.6406 25.2344 87.7148 25.0469 86.9023 24.6719C86.0898 24.2969 85.457 23.7812 85.0039 23.125C84.5508 22.4688 84.3242 21.7617 84.3242 21.0039H87.0898C87.1289 21.6758 87.3828 22.1953 87.8516 22.5625C88.3203 22.9219 88.9414 23.1016 89.7148 23.1016C90.4648 23.1016 91.0352 22.9609 91.4258 22.6797C91.8164 22.3906 92.0117 22.0156 92.0117 21.5547Z" fill="white"/>
<path d="M102.887 25.2344C101.082 25.2344 99.6172 24.668 98.4922 23.5352C97.375 22.3945 96.8164 20.8789 96.8164 18.9883V18.6367C96.8164 17.3711 97.0586 16.2422 97.543 15.25C98.0352 14.25 98.7227 13.4727 99.6055 12.918C100.488 12.3633 101.473 12.0859 102.559 12.0859C104.285 12.0859 105.617 12.6367 106.555 13.7383C107.5 14.8398 107.973 16.3984 107.973 18.4141V19.5625H99.6875C99.7734 20.6094 100.121 21.4375 100.73 22.0469C101.348 22.6562 102.121 22.9609 103.051 22.9609C104.355 22.9609 105.418 22.4336 106.238 21.3789L107.773 22.8438C107.266 23.6016 106.586 24.1914 105.734 24.6133C104.891 25.0273 103.941 25.2344 102.887 25.2344ZM102.547 14.3711C101.766 14.3711 101.133 14.6445 100.648 15.1914C100.172 15.7383 99.8672 16.5 99.7344 17.4766H105.16V17.2656C105.098 16.3125 104.844 15.5938 104.398 15.1094C103.953 14.6172 103.336 14.3711 102.547 14.3711Z" fill="white"/>
<path d="M112.836 12.3203L112.918 13.7852C113.855 12.6523 115.086 12.0859 116.609 12.0859C119.25 12.0859 120.594 13.5977 120.641 16.6211V25H117.793V16.7852C117.793 15.9805 117.617 15.3867 117.266 15.0039C116.922 14.6133 116.355 14.418 115.566 14.418C114.418 14.418 113.562 14.9375 113 15.9766V25H110.152V12.3203H112.836Z" fill="white"/>
<path d="M127.121 9.23828V12.3203H129.359V14.4297H127.121V21.5078C127.121 21.9922 127.215 22.3438 127.402 22.5625C127.598 22.7734 127.941 22.8789 128.434 22.8789C128.762 22.8789 129.094 22.8398 129.43 22.7617V24.9648C128.781 25.1445 128.156 25.2344 127.555 25.2344C125.367 25.2344 124.273 24.0273 124.273 21.6133V14.4297H122.188V12.3203H124.273V9.23828H127.121Z" fill="white"/>
<path d="M141.371 21.0273H134.762L133.379 25H130.297L136.742 7.9375H139.402L145.859 25H142.766L141.371 21.0273ZM135.594 18.6367H140.539L138.066 11.5586L135.594 18.6367Z" fill="white"/>
<path d="M154.168 14.9219C153.793 14.8594 153.406 14.8281 153.008 14.8281C151.703 14.8281 150.824 15.3281 150.371 16.3281V25H147.523V12.3203H150.242L150.312 13.7383C151 12.6367 151.953 12.0859 153.172 12.0859C153.578 12.0859 153.914 12.1406 154.18 12.25L154.168 14.9219Z" fill="white"/>
<path d="M155.199 18.5547C155.199 16.5703 155.652 14.9961 156.559 13.832C157.465 12.668 158.691 12.0859 160.238 12.0859C161.652 12.0859 162.773 12.582 163.602 13.5742L163.766 12.3203H166.297V29.875H163.449V23.9219C162.621 24.7969 161.543 25.2344 160.215 25.2344C158.699 25.2344 157.484 24.6445 156.57 23.4648C155.656 22.2773 155.199 20.6406 155.199 18.5547ZM158.047 18.8008C158.047 20.0977 158.301 21.1172 158.809 21.8594C159.324 22.5938 160.035 22.9609 160.941 22.9609C162.066 22.9609 162.902 22.4805 163.449 21.5195V15.7539C162.902 14.832 162.074 14.3711 160.965 14.3711C160.059 14.3711 159.344 14.7344 158.82 15.4609C158.305 16.1875 158.047 17.3008 158.047 18.8008Z" fill="white"/>
</svg>
