<svg width="24" height="24" viewBox="0 0 24 24" fill="none" xmlns="http://www.w3.org/2000/svg">
<g clip-path="url(#clip0)">
<path d="M21.379 23.1724H21.1699C21.2159 23.0428 21.2411 22.9036 21.2411 22.7585C21.2411 22.4517 21.1294 22.1626 20.9321 21.9391C20.954 21.8462 20.9652 21.7509 20.9652 21.6551C20.9652 21.1157 20.6193 20.6558 20.1376 20.4849V11.5621C20.1941 11.5422 20.2471 11.5101 20.2923 11.465L21.6716 10.0857C21.8332 9.9241 21.8332 9.66211 21.6716 9.50044L12.2923 0.121148C12.1307 -0.0403827 11.8687 -0.0403827 11.7071 0.121148L6.34457 5.48368V4.82753C6.34457 4.59897 6.15936 4.41372 5.93075 4.41372H4.2756C4.04704 4.41372 3.86179 4.59892 3.86179 4.82753V7.96646L2.32776 9.50049C2.16618 9.66221 2.16618 9.92414 2.32776 10.0857L3.70706 11.465C3.7522 11.5101 3.80531 11.5421 3.86174 11.5621V20.485C3.3801 20.6559 3.03417 21.1158 3.03417 21.6552C3.03417 21.751 3.04537 21.8464 3.06731 21.9392C2.87006 22.1627 2.75831 22.4517 2.75831 22.7586C2.75831 22.9037 2.78353 23.0429 2.82946 23.1724H2.62035C2.39179 23.1724 2.20654 23.3576 2.20654 23.5863C2.20654 23.8148 2.39175 24.0001 2.62035 24.0001H21.379C21.6076 24.0001 21.7928 23.8149 21.7928 23.5863C21.7928 23.3576 21.6075 23.1724 21.379 23.1724ZM4.68937 5.24129H5.51694V6.31126L4.68937 7.13884V5.24129ZM3.20559 9.79304L4.56791 8.43076C4.56815 8.43052 4.56829 8.43033 4.56852 8.43015L6.22307 6.7756C6.2233 6.77537 6.22344 6.77518 6.22368 6.77499L11.9997 0.998928L20.7939 9.79308L19.9997 10.5872L12.2923 2.87974C12.2115 2.79897 12.1055 2.75856 11.9996 2.75856C11.8938 2.75856 11.7878 2.79897 11.707 2.87974L3.99974 10.5872L3.20559 9.79304ZM6.75824 23.1724H3.99974C3.77156 23.1724 3.58593 22.9868 3.58593 22.7585C3.58593 22.6171 3.6577 22.4868 3.77788 22.4099C3.96304 22.2915 4.02337 22.049 3.91523 21.8577C3.87974 21.7948 3.86174 21.7267 3.86174 21.6551C3.86174 21.4269 4.04732 21.2412 4.27555 21.2412C4.4053 21.2412 4.49694 21.299 4.55099 21.3475C4.70821 21.4886 4.94638 21.4886 5.1036 21.3475C5.1576 21.299 5.24929 21.2412 5.37904 21.2412C5.50879 21.2412 5.60043 21.299 5.65447 21.3475C5.81169 21.4886 6.04982 21.4886 6.20708 21.3475C6.26108 21.299 6.35282 21.2412 6.48252 21.2412C6.71071 21.2412 6.89633 21.4268 6.89633 21.6551C6.89633 21.7267 6.87833 21.7949 6.84285 21.8577C6.73471 22.049 6.79503 22.2915 6.98019 22.4099C7.10042 22.4868 7.17214 22.6171 7.17214 22.7585C7.172 22.9867 6.98642 23.1724 6.75824 23.1724ZM13.2411 23.1724H12.4135V21.931C12.4135 21.7024 12.2283 21.5172 11.9997 21.5172C11.7711 21.5172 11.5859 21.7024 11.5859 21.931V23.1724H10.7583V20.6896H13.2411V23.1724ZM16.3088 21.9392C16.1115 22.1626 15.9998 22.4517 15.9998 22.7586C15.9998 22.9036 16.025 23.0428 16.0709 23.1724H14.0687V20.2759C14.0687 20.0473 13.8835 19.862 13.6549 19.862H10.3445C10.116 19.862 9.93073 20.0473 9.93073 20.2759V23.1724H7.92852C7.97445 23.0428 7.99967 22.9037 7.99967 22.7586C7.99967 22.4518 7.88797 22.1626 7.69067 21.9392C7.71256 21.8463 7.72381 21.7509 7.72381 21.6552C7.72381 20.9707 7.16689 20.4138 6.48243 20.4138C6.28939 20.4138 6.10091 20.4588 5.93071 20.5437C5.7605 20.4588 5.57202 20.4138 5.37899 20.4138C5.18596 20.4138 4.99747 20.4588 4.82727 20.5437C4.78246 20.5213 4.73633 20.5019 4.68932 20.4852V11.0679L11.9997 3.75756L19.3101 11.068V20.4852C19.263 20.502 19.2169 20.5213 19.1721 20.5437C19.0019 20.4589 18.8134 20.4138 18.6204 20.4138C18.4274 20.4138 18.2389 20.4589 18.0687 20.5437C17.8985 20.4589 17.71 20.4138 17.517 20.4138C16.8325 20.4138 16.2756 20.9707 16.2756 21.6552C16.2756 21.7509 16.2868 21.8463 16.3088 21.9392ZM19.9997 23.1724H17.2411C17.0129 23.1724 16.8273 22.9868 16.8273 22.7585C16.8273 22.6171 16.8991 22.4868 17.0193 22.4099C17.2044 22.2915 17.2648 22.049 17.1566 21.8577C17.1212 21.7948 17.1032 21.7267 17.1032 21.6551C17.1032 21.4269 17.2887 21.2412 17.517 21.2412C17.6467 21.2412 17.7384 21.299 17.7924 21.3475C17.9496 21.4886 18.1878 21.4886 18.345 21.3475C18.399 21.299 18.4907 21.2412 18.6204 21.2412C18.7502 21.2412 18.8418 21.299 18.8959 21.3475C19.0531 21.4886 19.2913 21.4886 19.4485 21.3475C19.5025 21.299 19.5942 21.2412 19.7239 21.2412C19.9521 21.2412 20.1377 21.4268 20.1377 21.6551C20.1377 21.7267 20.1197 21.7949 20.0843 21.8577C19.9761 22.049 20.0364 22.2915 20.2216 22.4099C20.3418 22.4868 20.4136 22.6171 20.4136 22.7585C20.4135 22.9867 20.2279 23.1724 19.9997 23.1724Z" fill="#2F80ED"/>
<path d="M11.9997 9.65514C12.6842 9.65514 13.2411 9.09822 13.2411 8.41375C13.2411 7.72928 12.6842 7.17236 11.9997 7.17236C11.3152 7.17236 10.7583 7.72928 10.7583 8.41375C10.7583 9.09831 11.3152 9.65514 11.9997 9.65514ZM11.9997 7.99999C12.2279 7.99999 12.4135 8.18556 12.4135 8.4138C12.4135 8.64199 12.2279 8.82761 11.9997 8.82761C11.7715 8.82761 11.5859 8.64203 11.5859 8.4138C11.5859 8.18566 11.7715 7.99999 11.9997 7.99999Z" fill="#2F80ED"/>
<path d="M13.379 17.655H13.2411V15.8619C13.2411 15.6334 13.0559 15.4481 12.8273 15.4481H11.1721C10.9436 15.4481 10.7583 15.6333 10.7583 15.8619V17.655H10.6204C10.3918 17.655 10.2065 17.8402 10.2065 18.0689C10.2065 18.2974 10.3917 18.4827 10.6204 18.4827H13.379C13.6076 18.4827 13.7928 18.2975 13.7928 18.0689C13.7928 17.8403 13.6076 17.655 13.379 17.655ZM12.4135 17.655H11.5859V16.2757H12.4135V17.655Z" fill="#2F80ED"/>
<path d="M18.2064 18.0689C18.2064 17.8403 18.0212 17.655 17.7926 17.655H17.6547V15.8619C17.6547 15.6334 17.4695 15.4481 17.2408 15.4481H15.5857C15.3571 15.4481 15.1719 15.6333 15.1719 15.8619V17.655H15.0339C14.8054 17.655 14.6201 17.8402 14.6201 18.0689C14.6201 18.2974 14.8053 18.4827 15.0339 18.4827H17.7926C18.0212 18.4827 18.2064 18.2974 18.2064 18.0689ZM16.8271 17.655H15.9995V16.2757H16.8271V17.655Z" fill="#2F80ED"/>
<path d="M9.02015 17.655H8.8822V15.8619C8.8822 15.6334 8.697 15.4481 8.46839 15.4481H6.81323C6.58467 15.4481 6.39942 15.6333 6.39942 15.8619V17.655H6.26147C6.03291 17.655 5.84766 17.8402 5.84766 18.0689C5.84766 18.2974 6.03286 18.4827 6.26147 18.4827H9.0201C9.24867 18.4827 9.43392 18.2975 9.43392 18.0689C9.43392 17.8403 9.24867 17.655 9.02015 17.655ZM8.05462 17.655H7.22704V16.2757H8.05462V17.655Z" fill="#2F80ED"/>
<path d="M13.379 13.2412H13.2411V11.4481C13.2411 11.2196 13.0559 11.0343 12.8273 11.0343H11.1721C10.9436 11.0343 10.7583 11.2195 10.7583 11.4481V13.2412H10.6204C10.3918 13.2412 10.2065 13.4264 10.2065 13.655C10.2065 13.8836 10.3917 14.0688 10.6204 14.0688H13.379C13.6076 14.0688 13.7928 13.8836 13.7928 13.655C13.7928 13.4265 13.6076 13.2412 13.379 13.2412ZM12.4135 13.2412H11.5859V11.8619H12.4135V13.2412Z" fill="#2F80ED"/>
<path d="M15.034 14.0688H17.7926C18.0212 14.0688 18.2064 13.8836 18.2064 13.655C18.2064 13.4265 18.0212 13.2412 17.7926 13.2412H17.6547V11.4481C17.6547 11.2196 17.4695 11.0343 17.2408 11.0343H15.5857C15.3571 11.0343 15.1719 11.2195 15.1719 11.4481V13.2412H15.0339C14.8054 13.2412 14.6201 13.4264 14.6201 13.655C14.6202 13.8836 14.8054 14.0688 15.034 14.0688ZM15.9995 11.862H16.8271V13.2413H15.9995V11.862Z" fill="#2F80ED"/>
<path d="M9.02015 13.2412H8.8822V11.4481C8.8822 11.2196 8.697 11.0343 8.46839 11.0343H6.81323C6.58467 11.0343 6.39942 11.2195 6.39942 11.4481V13.2412H6.26147C6.03291 13.2412 5.84766 13.4264 5.84766 13.655C5.84766 13.8836 6.03286 14.0688 6.26147 14.0688H9.0201C9.24867 14.0688 9.43392 13.8836 9.43392 13.655C9.43392 13.4265 9.24867 13.2412 9.02015 13.2412ZM8.05462 13.2412H7.22704V11.8619H8.05462V13.2412Z" fill="#2F80ED"/>
</g>
<defs>
<clipPath id="clip0">
<rect width="24" height="24" fill="white"/>
</clipPath>
</defs>
</svg>
